<svg width="1363" height="297" viewBox="0 0 1363 297" fill="none" xmlns="http://www.w3.org/2000/svg">
<path d="M0 15C0 6.71573 6.71573 0 15 0H37V297H15C6.71573 297 0 290.284 0 282V15Z" fill="#99ABC7"/>
<path d="M37 0H1066V297H37V0Z" fill="#F0F0F0"/>
<path d="M97.6934 49.4062H102.158L108.732 68.1973L115.307 49.4062H119.771L110.525 75H106.939L97.6934 49.4062ZM95.2852 49.4062H99.7324L100.541 67.7227V75H95.2852V49.4062ZM117.732 49.4062H122.197V75H116.924V67.7227L117.732 49.4062ZM136.77 70.7109V62.2383C136.77 61.6289 136.67 61.1074 136.471 60.6738C136.271 60.2285 135.961 59.8828 135.539 59.6367C135.129 59.3906 134.596 59.2676 133.939 59.2676C133.377 59.2676 132.891 59.3672 132.48 59.5664C132.07 59.7539 131.754 60.0293 131.531 60.3926C131.309 60.7441 131.197 61.1602 131.197 61.6406H126.135C126.135 60.832 126.322 60.0645 126.697 59.3379C127.072 58.6113 127.617 57.9727 128.332 57.4219C129.047 56.8594 129.896 56.4199 130.881 56.1035C131.877 55.7871 132.99 55.6289 134.221 55.6289C135.697 55.6289 137.01 55.875 138.158 56.3672C139.307 56.8594 140.209 57.5977 140.865 58.582C141.533 59.5664 141.867 60.7969 141.867 62.2734V70.4121C141.867 71.4551 141.932 72.3105 142.061 72.9785C142.189 73.6348 142.377 74.209 142.623 74.7012V75H137.508C137.262 74.4844 137.074 73.8398 136.945 73.0664C136.828 72.2812 136.77 71.4961 136.77 70.7109ZM137.438 63.416L137.473 66.2812H134.643C133.975 66.2812 133.395 66.3574 132.902 66.5098C132.41 66.6621 132.006 66.8789 131.689 67.1602C131.373 67.4297 131.139 67.7461 130.986 68.1094C130.846 68.4727 130.775 68.8711 130.775 69.3047C130.775 69.7383 130.875 70.1309 131.074 70.4824C131.273 70.8223 131.561 71.0918 131.936 71.291C132.311 71.4785 132.75 71.5723 133.254 71.5723C134.016 71.5723 134.678 71.4199 135.24 71.1152C135.803 70.8105 136.236 70.4355 136.541 69.9902C136.857 69.5449 137.021 69.123 137.033 68.7246L138.369 70.8691C138.182 71.3496 137.924 71.8477 137.596 72.3633C137.279 72.8789 136.875 73.3652 136.383 73.8223C135.891 74.2676 135.299 74.6367 134.607 74.9297C133.916 75.2109 133.096 75.3516 132.146 75.3516C130.939 75.3516 129.844 75.1113 128.859 74.6309C127.887 74.1387 127.113 73.4648 126.539 72.6094C125.977 71.7422 125.695 70.7578 125.695 69.6562C125.695 68.6602 125.883 67.7754 126.258 67.002C126.633 66.2285 127.184 65.5781 127.91 65.0508C128.648 64.5117 129.568 64.1074 130.67 63.8379C131.771 63.5566 133.049 63.416 134.502 63.416H137.438ZM150.832 60.1289V75H145.77V55.9805H150.533L150.832 60.1289ZM156.562 55.8574L156.475 60.5508C156.229 60.5156 155.93 60.4863 155.578 60.4629C155.238 60.4277 154.928 60.4102 154.646 60.4102C153.932 60.4102 153.311 60.5039 152.783 60.6914C152.268 60.8672 151.834 61.1309 151.482 61.4824C151.143 61.834 150.885 62.2617 150.709 62.7656C150.545 63.2695 150.451 63.8438 150.428 64.4883L149.408 64.1719C149.408 62.9414 149.531 61.8105 149.777 60.7793C150.023 59.7363 150.381 58.8281 150.85 58.0547C151.33 57.2812 151.916 56.6836 152.607 56.2617C153.299 55.8398 154.09 55.6289 154.98 55.6289C155.262 55.6289 155.549 55.6523 155.842 55.6992C156.135 55.7344 156.375 55.7871 156.562 55.8574ZM164.912 72.8555L169.957 55.9805H175.389L167.742 77.8652C167.578 78.3457 167.355 78.8613 167.074 79.4121C166.805 79.9629 166.436 80.4844 165.967 80.9766C165.51 81.4805 164.93 81.8906 164.227 82.207C163.535 82.5234 162.686 82.6816 161.678 82.6816C161.197 82.6816 160.805 82.6523 160.5 82.5938C160.195 82.5352 159.832 82.4531 159.41 82.3477V78.6387C159.539 78.6387 159.674 78.6387 159.814 78.6387C159.955 78.6504 160.09 78.6562 160.219 78.6562C160.887 78.6562 161.432 78.5801 161.854 78.4277C162.275 78.2754 162.615 78.041 162.873 77.7246C163.131 77.4199 163.336 77.0215 163.488 76.5293L164.912 72.8555ZM162.803 55.9805L166.934 69.7617L167.654 75.123L164.209 75.4922L157.371 55.9805H162.803ZM187.395 70.7109V62.2383C187.395 61.6289 187.295 61.1074 187.096 60.6738C186.896 60.2285 186.586 59.8828 186.164 59.6367C185.754 59.3906 185.221 59.2676 184.564 59.2676C184.002 59.2676 183.516 59.3672 183.105 59.5664C182.695 59.7539 182.379 60.0293 182.156 60.3926C181.934 60.7441 181.822 61.1602 181.822 61.6406H176.76C176.76 60.832 176.947 60.0645 177.322 59.3379C177.697 58.6113 178.242 57.9727 178.957 57.4219C179.672 56.8594 180.521 56.4199 181.506 56.1035C182.502 55.7871 183.615 55.6289 184.846 55.6289C186.322 55.6289 187.635 55.875 188.783 56.3672C189.932 56.8594 190.834 57.5977 191.49 58.582C192.158 59.5664 192.492 60.7969 192.492 62.2734V70.4121C192.492 71.4551 192.557 72.3105 192.686 72.9785C192.814 73.6348 193.002 74.209 193.248 74.7012V75H188.133C187.887 74.4844 187.699 73.8398 187.57 73.0664C187.453 72.2812 187.395 71.4961 187.395 70.7109ZM188.062 63.416L188.098 66.2812H185.268C184.6 66.2812 184.02 66.3574 183.527 66.5098C183.035 66.6621 182.631 66.8789 182.314 67.1602C181.998 67.4297 181.764 67.7461 181.611 68.1094C181.471 68.4727 181.4 68.8711 181.4 69.3047C181.4 69.7383 181.5 70.1309 181.699 70.4824C181.898 70.8223 182.186 71.0918 182.561 71.291C182.936 71.4785 183.375 71.5723 183.879 71.5723C184.641 71.5723 185.303 71.4199 185.865 71.1152C186.428 70.8105 186.861 70.4355 187.166 69.9902C187.482 69.5449 187.646 69.123 187.658 68.7246L188.994 70.8691C188.807 71.3496 188.549 71.8477 188.221 72.3633C187.904 72.8789 187.5 73.3652 187.008 73.8223C186.516 74.2676 185.924 74.6367 185.232 74.9297C184.541 75.2109 183.721 75.3516 182.771 75.3516C181.564 75.3516 180.469 75.1113 179.484 74.6309C178.512 74.1387 177.738 73.4648 177.164 72.6094C176.602 71.7422 176.32 70.7578 176.32 69.6562C176.32 68.6602 176.508 67.7754 176.883 67.002C177.258 66.2285 177.809 65.5781 178.535 65.0508C179.273 64.5117 180.193 64.1074 181.295 63.8379C182.396 63.5566 183.674 63.416 185.127 63.416H188.062ZM201.457 59.918V75H196.377V55.9805H201.141L201.457 59.918ZM200.754 64.8223H199.348C199.348 63.498 199.506 62.2793 199.822 61.166C200.15 60.041 200.625 59.0684 201.246 58.248C201.879 57.416 202.658 56.7715 203.584 56.3145C204.51 55.8574 205.582 55.6289 206.801 55.6289C207.645 55.6289 208.418 55.7578 209.121 56.0156C209.824 56.2617 210.428 56.6543 210.932 57.1934C211.447 57.7207 211.846 58.4121 212.127 59.2676C212.408 60.1113 212.549 61.125 212.549 62.3086V75H207.486V62.8711C207.486 62.0039 207.369 61.3359 207.135 60.8672C206.9 60.3984 206.566 60.0703 206.133 59.8828C205.711 59.6953 205.201 59.6016 204.604 59.6016C203.947 59.6016 203.373 59.7363 202.881 60.0059C202.4 60.2754 202.002 60.6504 201.686 61.1309C201.369 61.5996 201.135 62.1504 200.982 62.7832C200.83 63.416 200.754 64.0957 200.754 64.8223ZM212.074 64.2422L210.264 64.4707C210.264 63.2285 210.416 62.0742 210.721 61.0078C211.037 59.9414 211.5 59.0039 212.109 58.1953C212.73 57.3867 213.498 56.7598 214.412 56.3145C215.326 55.8574 216.381 55.6289 217.576 55.6289C218.49 55.6289 219.322 55.7637 220.072 56.0332C220.822 56.291 221.461 56.707 221.988 57.2812C222.527 57.8438 222.938 58.582 223.219 59.4961C223.512 60.4102 223.658 61.5293 223.658 62.8535V75H218.578V62.8535C218.578 61.9746 218.461 61.3066 218.227 60.8496C218.004 60.3809 217.676 60.0586 217.242 59.8828C216.82 59.6953 216.316 59.6016 215.73 59.6016C215.121 59.6016 214.588 59.7246 214.131 59.9707C213.674 60.2051 213.293 60.5332 212.988 60.9551C212.684 61.377 212.455 61.8691 212.303 62.4316C212.15 62.9824 212.074 63.5859 212.074 64.2422ZM239.268 49.4062H243.732L250.307 68.1973L256.881 49.4062H261.346L252.1 75H248.514L239.268 49.4062ZM236.859 49.4062H241.307L242.115 67.7227V75H236.859V49.4062ZM259.307 49.4062H263.771V75H258.498V67.7227L259.307 49.4062ZM267.27 65.6836V65.3145C267.27 63.9199 267.469 62.6367 267.867 61.4648C268.266 60.2812 268.846 59.2559 269.607 58.3887C270.369 57.5215 271.307 56.8477 272.42 56.3672C273.533 55.875 274.811 55.6289 276.252 55.6289C277.693 55.6289 278.977 55.875 280.102 56.3672C281.227 56.8477 282.17 57.5215 282.932 58.3887C283.705 59.2559 284.291 60.2812 284.689 61.4648C285.088 62.6367 285.287 63.9199 285.287 65.3145V65.6836C285.287 67.0664 285.088 68.3496 284.689 69.5332C284.291 70.7051 283.705 71.7305 282.932 72.6094C282.17 73.4766 281.232 74.1504 280.119 74.6309C279.006 75.1113 277.729 75.3516 276.287 75.3516C274.846 75.3516 273.562 75.1113 272.438 74.6309C271.324 74.1504 270.381 73.4766 269.607 72.6094C268.846 71.7305 268.266 70.7051 267.867 69.5332C267.469 68.3496 267.27 67.0664 267.27 65.6836ZM272.332 65.3145V65.6836C272.332 66.4805 272.402 67.2246 272.543 67.916C272.684 68.6074 272.906 69.2168 273.211 69.7441C273.527 70.2598 273.938 70.6641 274.441 70.957C274.945 71.25 275.561 71.3965 276.287 71.3965C276.99 71.3965 277.594 71.25 278.098 70.957C278.602 70.6641 279.006 70.2598 279.311 69.7441C279.615 69.2168 279.838 68.6074 279.979 67.916C280.131 67.2246 280.207 66.4805 280.207 65.6836V65.3145C280.207 64.541 280.131 63.8145 279.979 63.1348C279.838 62.4434 279.609 61.834 279.293 61.3066C278.988 60.7676 278.584 60.3457 278.08 60.041C277.576 59.7363 276.967 59.584 276.252 59.584C275.537 59.584 274.928 59.7363 274.424 60.041C273.932 60.3457 273.527 60.7676 273.211 61.3066C272.906 61.834 272.684 62.4434 272.543 63.1348C272.402 63.8145 272.332 64.541 272.332 65.3145ZM299.648 70.4473V55.9805H304.711V75H299.947L299.648 70.4473ZM300.211 66.5449L301.705 66.5098C301.705 67.7754 301.559 68.9531 301.266 70.043C300.973 71.1211 300.533 72.0586 299.947 72.8555C299.361 73.6406 298.623 74.2559 297.732 74.7012C296.842 75.1348 295.793 75.3516 294.586 75.3516C293.66 75.3516 292.805 75.2227 292.02 74.9648C291.246 74.6953 290.578 74.2793 290.016 73.7168C289.465 73.1426 289.031 72.4102 288.715 71.5195C288.41 70.6172 288.258 69.5332 288.258 68.2676V55.9805H293.32V68.3027C293.32 68.8652 293.385 69.3398 293.514 69.7266C293.654 70.1133 293.848 70.4297 294.094 70.6758C294.34 70.9219 294.627 71.0977 294.955 71.2031C295.295 71.3086 295.67 71.3613 296.08 71.3613C297.123 71.3613 297.943 71.1504 298.541 70.7285C299.15 70.3066 299.578 69.7324 299.824 69.0059C300.082 68.2676 300.211 67.4473 300.211 66.5449ZM318.861 69.7441C318.861 69.3809 318.756 69.0527 318.545 68.7598C318.334 68.4668 317.941 68.1973 317.367 67.9512C316.805 67.6934 315.99 67.459 314.924 67.248C313.963 67.0371 313.066 66.7734 312.234 66.457C311.414 66.1289 310.699 65.7363 310.09 65.2793C309.492 64.8223 309.023 64.2832 308.684 63.6621C308.344 63.0293 308.174 62.3086 308.174 61.5C308.174 60.7031 308.344 59.9531 308.684 59.25C309.035 58.5469 309.533 57.9258 310.178 57.3867C310.834 56.8359 311.631 56.4082 312.568 56.1035C313.518 55.7871 314.584 55.6289 315.768 55.6289C317.42 55.6289 318.838 55.8926 320.021 56.4199C321.217 56.9473 322.131 57.6738 322.764 58.5996C323.408 59.5137 323.73 60.5566 323.73 61.7285H318.668C318.668 61.2363 318.562 60.7969 318.352 60.4102C318.152 60.0117 317.836 59.7012 317.402 59.4785C316.98 59.2441 316.43 59.127 315.75 59.127C315.188 59.127 314.701 59.2266 314.291 59.4258C313.881 59.6133 313.564 59.8711 313.342 60.1992C313.131 60.5156 313.025 60.8672 313.025 61.2539C313.025 61.5469 313.084 61.8105 313.201 62.0449C313.33 62.2676 313.535 62.4727 313.816 62.6602C314.098 62.8477 314.461 63.0234 314.906 63.1875C315.363 63.3398 315.926 63.4805 316.594 63.6094C317.965 63.8906 319.189 64.2598 320.268 64.7168C321.346 65.1621 322.201 65.7715 322.834 66.5449C323.467 67.3066 323.783 68.3086 323.783 69.5508C323.783 70.3945 323.596 71.168 323.221 71.8711C322.846 72.5742 322.307 73.1895 321.604 73.7168C320.9 74.2324 320.057 74.6367 319.072 74.9297C318.1 75.2109 317.004 75.3516 315.785 75.3516C314.016 75.3516 312.516 75.0352 311.285 74.4023C310.066 73.7695 309.141 72.9668 308.508 71.9941C307.887 71.0098 307.576 70.002 307.576 68.9707H312.375C312.398 69.6621 312.574 70.2188 312.902 70.6406C313.242 71.0625 313.67 71.3672 314.186 71.5547C314.713 71.7422 315.281 71.8359 315.891 71.8359C316.547 71.8359 317.092 71.748 317.525 71.5723C317.959 71.3848 318.287 71.1387 318.51 70.834C318.744 70.5176 318.861 70.1543 318.861 69.7441ZM332.414 48V75H327.334V48H332.414ZM341.941 55.9805V75H336.861V55.9805H341.941ZM336.545 51.0234C336.545 50.2852 336.803 49.6758 337.318 49.1953C337.834 48.7148 338.525 48.4746 339.393 48.4746C340.248 48.4746 340.934 48.7148 341.449 49.1953C341.977 49.6758 342.24 50.2852 342.24 51.0234C342.24 51.7617 341.977 52.3711 341.449 52.8516C340.934 53.332 340.248 53.5723 339.393 53.5723C338.525 53.5723 337.834 53.332 337.318 52.8516C336.803 52.3711 336.545 51.7617 336.545 51.0234ZM351.188 59.918V75H346.107V55.9805H350.871L351.188 59.918ZM350.484 64.8223H349.078C349.078 63.498 349.236 62.2793 349.553 61.166C349.881 60.041 350.355 59.0684 350.977 58.248C351.609 57.416 352.389 56.7715 353.314 56.3145C354.24 55.8574 355.312 55.6289 356.531 55.6289C357.375 55.6289 358.148 55.7578 358.852 56.0156C359.555 56.2617 360.158 56.6543 360.662 57.1934C361.178 57.7207 361.576 58.4121 361.857 59.2676C362.139 60.1113 362.279 61.125 362.279 62.3086V75H357.217V62.8711C357.217 62.0039 357.1 61.3359 356.865 60.8672C356.631 60.3984 356.297 60.0703 355.863 59.8828C355.441 59.6953 354.932 59.6016 354.334 59.6016C353.678 59.6016 353.104 59.7363 352.611 60.0059C352.131 60.2754 351.732 60.6504 351.416 61.1309C351.1 61.5996 350.865 62.1504 350.713 62.7832C350.561 63.416 350.484 64.0957 350.484 64.8223ZM361.805 64.2422L359.994 64.4707C359.994 63.2285 360.146 62.0742 360.451 61.0078C360.768 59.9414 361.23 59.0039 361.84 58.1953C362.461 57.3867 363.229 56.7598 364.143 56.3145C365.057 55.8574 366.111 55.6289 367.307 55.6289C368.221 55.6289 369.053 55.7637 369.803 56.0332C370.553 56.291 371.191 56.707 371.719 57.2812C372.258 57.8438 372.668 58.582 372.949 59.4961C373.242 60.4102 373.389 61.5293 373.389 62.8535V75H368.309V62.8535C368.309 61.9746 368.191 61.3066 367.957 60.8496C367.734 60.3809 367.406 60.0586 366.973 59.8828C366.551 59.6953 366.047 59.6016 365.461 59.6016C364.852 59.6016 364.318 59.7246 363.861 59.9707C363.404 60.2051 363.023 60.5332 362.719 60.9551C362.414 61.377 362.186 61.8691 362.033 62.4316C361.881 62.9824 361.805 63.5859 361.805 64.2422ZM387.574 70.7109V62.2383C387.574 61.6289 387.475 61.1074 387.275 60.6738C387.076 60.2285 386.766 59.8828 386.344 59.6367C385.934 59.3906 385.4 59.2676 384.744 59.2676C384.182 59.2676 383.695 59.3672 383.285 59.5664C382.875 59.7539 382.559 60.0293 382.336 60.3926C382.113 60.7441 382.002 61.1602 382.002 61.6406H376.939C376.939 60.832 377.127 60.0645 377.502 59.3379C377.877 58.6113 378.422 57.9727 379.137 57.4219C379.852 56.8594 380.701 56.4199 381.686 56.1035C382.682 55.7871 383.795 55.6289 385.025 55.6289C386.502 55.6289 387.814 55.875 388.963 56.3672C390.111 56.8594 391.014 57.5977 391.67 58.582C392.338 59.5664 392.672 60.7969 392.672 62.2734V70.4121C392.672 71.4551 392.736 72.3105 392.865 72.9785C392.994 73.6348 393.182 74.209 393.428 74.7012V75H388.312C388.066 74.4844 387.879 73.8398 387.75 73.0664C387.633 72.2812 387.574 71.4961 387.574 70.7109ZM388.242 63.416L388.277 66.2812H385.447C384.779 66.2812 384.199 66.3574 383.707 66.5098C383.215 66.6621 382.811 66.8789 382.494 67.1602C382.178 67.4297 381.943 67.7461 381.791 68.1094C381.65 68.4727 381.58 68.8711 381.58 69.3047C381.58 69.7383 381.68 70.1309 381.879 70.4824C382.078 70.8223 382.365 71.0918 382.74 71.291C383.115 71.4785 383.555 71.5723 384.059 71.5723C384.82 71.5723 385.482 71.4199 386.045 71.1152C386.607 70.8105 387.041 70.4355 387.346 69.9902C387.662 69.5449 387.826 69.123 387.838 68.7246L389.174 70.8691C388.986 71.3496 388.729 71.8477 388.4 72.3633C388.084 72.8789 387.68 73.3652 387.188 73.8223C386.695 74.2676 386.104 74.6367 385.412 74.9297C384.721 75.2109 383.9 75.3516 382.951 75.3516C381.744 75.3516 380.648 75.1113 379.664 74.6309C378.691 74.1387 377.918 73.4648 377.344 72.6094C376.781 71.7422 376.5 70.7578 376.5 69.6562C376.5 68.6602 376.688 67.7754 377.062 67.002C377.438 66.2285 377.988 65.5781 378.715 65.0508C379.453 64.5117 380.373 64.1074 381.475 63.8379C382.576 63.5566 383.854 63.416 385.307 63.416H388.242ZM401.531 60.041V75H396.469V55.9805H401.215L401.531 60.041ZM400.793 64.8223H399.422C399.422 63.416 399.604 62.1504 399.967 61.0254C400.33 59.8887 400.84 58.9219 401.496 58.125C402.152 57.3164 402.932 56.7012 403.834 56.2793C404.748 55.8457 405.768 55.6289 406.893 55.6289C407.783 55.6289 408.598 55.7578 409.336 56.0156C410.074 56.2734 410.707 56.6836 411.234 57.2461C411.773 57.8086 412.184 58.5527 412.465 59.4785C412.758 60.4043 412.904 61.5352 412.904 62.8711V75H407.807V62.8535C407.807 62.0098 407.689 61.3535 407.455 60.8848C407.221 60.416 406.875 60.0879 406.418 59.9004C405.973 59.7012 405.422 59.6016 404.766 59.6016C404.086 59.6016 403.494 59.7363 402.99 60.0059C402.498 60.2754 402.088 60.6504 401.76 61.1309C401.443 61.5996 401.203 62.1504 401.039 62.7832C400.875 63.416 400.793 64.0957 400.793 64.8223ZM422.396 72.8555L427.441 55.9805H432.873L425.227 77.8652C425.062 78.3457 424.84 78.8613 424.559 79.4121C424.289 79.9629 423.92 80.4844 423.451 80.9766C422.994 81.4805 422.414 81.8906 421.711 82.207C421.02 82.5234 420.17 82.6816 419.162 82.6816C418.682 82.6816 418.289 82.6523 417.984 82.5938C417.68 82.5352 417.316 82.4531 416.895 82.3477V78.6387C417.023 78.6387 417.158 78.6387 417.299 78.6387C417.439 78.6504 417.574 78.6562 417.703 78.6562C418.371 78.6562 418.916 78.5801 419.338 78.4277C419.76 78.2754 420.1 78.041 420.357 77.7246C420.615 77.4199 420.82 77.0215 420.973 76.5293L422.396 72.8555ZM420.287 55.9805L424.418 69.7617L425.139 75.123L421.693 75.4922L414.855 55.9805H420.287Z" fill="#888888"/>
<path d="M129.723 119.301V120.914C129.723 123.958 129.294 126.693 128.438 129.117C127.599 131.523 126.405 133.583 124.855 135.297C123.306 136.992 121.474 138.296 119.359 139.207C117.245 140.1 114.911 140.547 112.359 140.547C109.789 140.547 107.438 140.1 105.305 139.207C103.19 138.296 101.349 136.992 99.7812 135.297C98.2318 133.583 97.0286 131.523 96.1719 129.117C95.3333 126.693 94.9141 123.958 94.9141 120.914V119.301C94.9141 116.257 95.3333 113.522 96.1719 111.098C97.0286 108.673 98.2227 106.613 99.7539 104.918C101.303 103.204 103.135 101.901 105.25 101.008C107.383 100.096 109.734 99.6406 112.305 99.6406C114.857 99.6406 117.19 100.096 119.305 101.008C121.438 101.901 123.279 103.204 124.828 104.918C126.378 106.613 127.581 108.673 128.438 111.098C129.294 113.522 129.723 116.257 129.723 119.301ZM119.988 120.914V119.246C119.988 117.277 119.815 115.546 119.469 114.051C119.141 112.538 118.648 111.271 117.992 110.25C117.336 109.229 116.525 108.464 115.559 107.953C114.611 107.424 113.526 107.16 112.305 107.16C111.029 107.16 109.917 107.424 108.969 107.953C108.021 108.464 107.228 109.229 106.59 110.25C105.952 111.271 105.469 112.538 105.141 114.051C104.831 115.546 104.676 117.277 104.676 119.246V120.914C104.676 122.865 104.831 124.596 105.141 126.109C105.469 127.604 105.952 128.871 106.59 129.91C107.246 130.949 108.048 131.733 108.996 132.262C109.962 132.79 111.083 133.055 112.359 133.055C113.581 133.055 114.665 132.79 115.613 132.262C116.561 131.733 117.354 130.949 117.992 129.91C118.648 128.871 119.141 127.604 119.469 126.109C119.815 124.596 119.988 122.865 119.988 120.914ZM143.559 117.742V140H134.344V110.414H142.957L143.559 117.742ZM152.309 110.195L152.145 118.754C151.78 118.717 151.288 118.672 150.668 118.617C150.048 118.562 149.529 118.535 149.109 118.535C148.034 118.535 147.104 118.663 146.32 118.918C145.555 119.155 144.917 119.52 144.406 120.012C143.914 120.486 143.549 121.087 143.312 121.816C143.094 122.546 142.993 123.393 143.012 124.359L141.344 123.266C141.344 121.279 141.535 119.474 141.918 117.852C142.319 116.211 142.884 114.798 143.613 113.613C144.342 112.41 145.227 111.49 146.266 110.852C147.305 110.195 148.471 109.867 149.766 109.867C150.221 109.867 150.668 109.895 151.105 109.949C151.561 110.004 151.962 110.086 152.309 110.195ZM167.43 133.438C168.286 133.438 169.016 133.283 169.617 132.973C170.237 132.645 170.702 132.189 171.012 131.605C171.34 131.004 171.495 130.284 171.477 129.445H180.145C180.163 131.669 179.616 133.62 178.504 135.297C177.41 136.956 175.915 138.25 174.02 139.18C172.142 140.091 170.018 140.547 167.648 140.547C165.333 140.547 163.31 140.173 161.578 139.426C159.846 138.66 158.397 137.603 157.23 136.254C156.082 134.887 155.216 133.292 154.633 131.469C154.068 129.646 153.785 127.668 153.785 125.535V124.906C153.785 122.773 154.068 120.796 154.633 118.973C155.216 117.132 156.082 115.536 157.23 114.188C158.397 112.82 159.837 111.763 161.551 111.016C163.283 110.25 165.297 109.867 167.594 109.867C170.055 109.867 172.224 110.332 174.102 111.262C175.997 112.191 177.483 113.54 178.559 115.309C179.634 117.077 180.163 119.219 180.145 121.734H171.477C171.495 120.841 171.358 120.039 171.066 119.328C170.775 118.617 170.319 118.052 169.699 117.633C169.098 117.195 168.323 116.977 167.375 116.977C166.427 116.977 165.661 117.186 165.078 117.605C164.495 118.025 164.048 118.608 163.738 119.355C163.447 120.085 163.246 120.923 163.137 121.871C163.046 122.819 163 123.831 163 124.906V125.535C163 126.629 163.046 127.659 163.137 128.625C163.246 129.573 163.456 130.411 163.766 131.141C164.076 131.852 164.522 132.417 165.105 132.836C165.689 133.237 166.464 133.438 167.43 133.438ZM193.105 98V140H183.891V98H193.105ZM192.012 124.195L189.852 124.25C189.852 122.172 190.107 120.258 190.617 118.508C191.128 116.758 191.857 115.236 192.805 113.941C193.753 112.647 194.892 111.645 196.223 110.934C197.553 110.223 199.03 109.867 200.652 109.867C202.111 109.867 203.441 110.077 204.645 110.496C205.866 110.915 206.914 111.59 207.789 112.52C208.682 113.449 209.366 114.661 209.84 116.156C210.332 117.651 210.578 119.474 210.578 121.625V140H201.309V121.57C201.309 120.367 201.135 119.438 200.789 118.781C200.461 118.107 199.987 117.642 199.367 117.387C198.747 117.113 197.991 116.977 197.098 116.977C196.022 116.977 195.147 117.159 194.473 117.523C193.798 117.888 193.279 118.398 192.914 119.055C192.568 119.693 192.331 120.449 192.203 121.324C192.076 122.199 192.012 123.156 192.012 124.195ZM230.02 140.547C227.613 140.547 225.462 140.173 223.566 139.426C221.671 138.66 220.066 137.612 218.754 136.281C217.46 134.951 216.466 133.419 215.773 131.688C215.099 129.956 214.762 128.124 214.762 126.191V125.152C214.762 122.983 215.062 120.978 215.664 119.137C216.266 117.277 217.159 115.655 218.344 114.27C219.529 112.884 221.014 111.809 222.801 111.043C224.587 110.259 226.665 109.867 229.035 109.867C231.132 109.867 233.009 110.204 234.668 110.879C236.327 111.553 237.73 112.52 238.879 113.777C240.046 115.035 240.93 116.557 241.531 118.344C242.151 120.13 242.461 122.135 242.461 124.359V128.105H218.289V122.336H233.465V121.625C233.483 120.641 233.31 119.802 232.945 119.109C232.599 118.417 232.089 117.888 231.414 117.523C230.74 117.159 229.919 116.977 228.953 116.977C227.951 116.977 227.121 117.195 226.465 117.633C225.827 118.07 225.326 118.672 224.961 119.438C224.615 120.185 224.368 121.051 224.223 122.035C224.077 123.02 224.004 124.059 224.004 125.152V126.191C224.004 127.285 224.15 128.279 224.441 129.172C224.751 130.065 225.189 130.831 225.754 131.469C226.337 132.089 227.03 132.572 227.832 132.918C228.652 133.264 229.582 133.438 230.621 133.438C231.879 133.438 233.118 133.201 234.34 132.727C235.561 132.253 236.609 131.469 237.484 130.375L241.668 135.352C241.066 136.208 240.21 137.038 239.098 137.84C238.004 138.642 236.691 139.298 235.16 139.809C233.629 140.301 231.915 140.547 230.02 140.547ZM261.711 131.688C261.711 131.177 261.538 130.74 261.191 130.375C260.863 129.992 260.28 129.646 259.441 129.336C258.603 129.008 257.427 128.68 255.914 128.352C254.474 128.042 253.116 127.632 251.84 127.121C250.582 126.611 249.479 125.991 248.531 125.262C247.583 124.533 246.836 123.667 246.289 122.664C245.76 121.661 245.496 120.513 245.496 119.219C245.496 117.961 245.76 116.776 246.289 115.664C246.836 114.534 247.629 113.54 248.668 112.684C249.725 111.809 251.01 111.125 252.523 110.633C254.036 110.122 255.759 109.867 257.691 109.867C260.353 109.867 262.65 110.277 264.582 111.098C266.514 111.9 268 113.03 269.039 114.488C270.096 115.928 270.625 117.596 270.625 119.492H261.41C261.41 118.745 261.283 118.107 261.027 117.578C260.79 117.049 260.398 116.648 259.852 116.375C259.305 116.083 258.576 115.938 257.664 115.938C257.026 115.938 256.443 116.056 255.914 116.293C255.404 116.53 254.993 116.858 254.684 117.277C254.374 117.697 254.219 118.189 254.219 118.754C254.219 119.155 254.31 119.52 254.492 119.848C254.693 120.158 254.993 120.449 255.395 120.723C255.796 120.978 256.306 121.215 256.926 121.434C257.546 121.634 258.293 121.816 259.168 121.98C261.155 122.345 263.014 122.865 264.746 123.539C266.478 124.214 267.882 125.171 268.957 126.41C270.051 127.65 270.598 129.318 270.598 131.414C270.598 132.727 270.297 133.939 269.695 135.051C269.094 136.145 268.228 137.111 267.098 137.949C265.967 138.77 264.609 139.408 263.023 139.863C261.438 140.319 259.651 140.547 257.664 140.547C254.839 140.547 252.451 140.046 250.5 139.043C248.549 138.022 247.073 136.746 246.07 135.215C245.086 133.665 244.594 132.098 244.594 130.512H253.18C253.216 131.423 253.435 132.171 253.836 132.754C254.255 133.337 254.811 133.766 255.504 134.039C256.197 134.312 256.999 134.449 257.91 134.449C258.749 134.449 259.441 134.331 259.988 134.094C260.553 133.857 260.982 133.538 261.273 133.137C261.565 132.717 261.711 132.234 261.711 131.688ZM290.504 110.414V116.812H272.676V110.414H290.504ZM276.422 103.059H285.637V130.348C285.637 131.132 285.728 131.742 285.91 132.18C286.092 132.599 286.402 132.9 286.84 133.082C287.296 133.246 287.897 133.328 288.645 133.328C289.173 133.328 289.611 133.319 289.957 133.301C290.303 133.264 290.632 133.219 290.941 133.164V139.754C290.158 140.009 289.337 140.201 288.48 140.328C287.624 140.474 286.712 140.547 285.746 140.547C283.777 140.547 282.091 140.237 280.688 139.617C279.302 138.997 278.245 138.022 277.516 136.691C276.786 135.361 276.422 133.629 276.422 131.496V103.059ZM303.465 117.742V140H294.25V110.414H302.863L303.465 117.742ZM312.215 110.195L312.051 118.754C311.686 118.717 311.194 118.672 310.574 118.617C309.954 118.562 309.435 118.535 309.016 118.535C307.94 118.535 307.01 118.663 306.227 118.918C305.461 119.155 304.823 119.52 304.312 120.012C303.82 120.486 303.456 121.087 303.219 121.816C303 122.546 302.9 123.393 302.918 124.359L301.25 123.266C301.25 121.279 301.441 119.474 301.824 117.852C302.225 116.211 302.79 114.798 303.52 113.613C304.249 112.41 305.133 111.49 306.172 110.852C307.211 110.195 308.378 109.867 309.672 109.867C310.128 109.867 310.574 109.895 311.012 109.949C311.467 110.004 311.868 110.086 312.215 110.195ZM325.121 110.414V140H315.879V110.414H325.121ZM315.332 102.785C315.332 101.473 315.806 100.397 316.754 99.5586C317.702 98.7201 318.932 98.3008 320.445 98.3008C321.958 98.3008 323.189 98.7201 324.137 99.5586C325.085 100.397 325.559 101.473 325.559 102.785C325.559 104.098 325.085 105.173 324.137 106.012C323.189 106.85 321.958 107.27 320.445 107.27C318.932 107.27 317.702 106.85 316.754 106.012C315.806 105.173 315.332 104.098 315.332 102.785ZM340.105 97.9727V140H330.891V97.9727H340.105ZM359.027 110.414L346.176 125.48L339.449 132.207L335.43 126.355L341.035 119.055L347.98 110.414H359.027ZM349.156 140L341.254 126.52L348.062 121.68L359.711 140H349.156Z" fill="black"/>
<rect x="93" y="178" width="917" height="77" rx="10" fill="#D3D3D3"/>
<rect x="111" y="196" width="91" height="41" rx="3" fill="#424242"/>
<rect x="111" y="196" width="91" height="41" rx="3" stroke="#424242" stroke-width="4"/>
<path d="M134.141 210.203H139.177C140.161 210.203 141.017 210.35 141.743 210.643C142.47 210.936 143.029 211.369 143.422 211.943C143.82 212.518 144.02 213.227 144.02 214.07C144.02 214.803 143.905 215.415 143.677 215.907C143.448 216.399 143.129 216.807 142.719 217.129C142.314 217.445 141.843 217.706 141.304 217.911L140.293 218.482H136.065L136.048 216.101H139.177C139.569 216.101 139.895 216.03 140.152 215.89C140.41 215.749 140.604 215.55 140.732 215.292C140.867 215.028 140.935 214.715 140.935 214.352C140.935 213.982 140.867 213.666 140.732 213.402C140.598 213.139 140.398 212.937 140.135 212.796C139.877 212.655 139.558 212.585 139.177 212.585H137.226V223H134.141V210.203ZM141.146 223L138.315 217.34L141.585 217.322L144.45 222.868V223H141.146ZM150.348 223.176C149.574 223.176 148.883 223.056 148.273 222.815C147.664 222.569 147.148 222.232 146.727 221.805C146.311 221.377 145.991 220.885 145.769 220.328C145.552 219.771 145.443 219.183 145.443 218.562V218.228C145.443 217.53 145.54 216.886 145.733 216.294C145.927 215.696 146.214 215.175 146.595 214.729C146.976 214.284 147.453 213.938 148.027 213.692C148.602 213.44 149.27 213.314 150.031 213.314C150.705 213.314 151.309 213.423 151.842 213.64C152.375 213.856 152.826 214.167 153.195 214.571C153.57 214.976 153.854 215.465 154.048 216.039C154.247 216.613 154.347 217.258 154.347 217.973V219.177H146.577V217.322H151.455V217.094C151.461 216.777 151.405 216.508 151.288 216.285C151.177 216.062 151.013 215.893 150.796 215.775C150.579 215.658 150.315 215.6 150.005 215.6C149.683 215.6 149.416 215.67 149.205 215.811C149 215.951 148.839 216.145 148.722 216.391C148.61 216.631 148.531 216.909 148.484 217.226C148.438 217.542 148.414 217.876 148.414 218.228V218.562C148.414 218.913 148.461 219.232 148.555 219.52C148.654 219.807 148.795 220.053 148.977 220.258C149.164 220.457 149.387 220.612 149.645 220.724C149.908 220.835 150.207 220.891 150.541 220.891C150.945 220.891 151.344 220.814 151.736 220.662C152.129 220.51 152.466 220.258 152.747 219.906L154.092 221.506C153.898 221.781 153.623 222.048 153.266 222.306C152.914 222.563 152.492 222.774 152 222.938C151.508 223.097 150.957 223.176 150.348 223.176ZM160.49 220.609V216.689C160.49 216.42 160.452 216.188 160.376 215.995C160.3 215.802 160.18 215.652 160.016 215.547C159.852 215.436 159.632 215.38 159.356 215.38C159.134 215.38 158.943 215.418 158.785 215.494C158.627 215.57 158.507 215.685 158.425 215.837C158.343 215.989 158.302 216.183 158.302 216.417H155.34C155.34 215.978 155.437 215.57 155.63 215.195C155.829 214.814 156.11 214.483 156.474 214.202C156.843 213.921 157.282 213.704 157.792 213.552C158.308 213.394 158.882 213.314 159.515 213.314C160.271 213.314 160.944 213.44 161.536 213.692C162.134 213.944 162.605 214.322 162.951 214.826C163.297 215.324 163.47 215.951 163.47 216.707V220.601C163.47 221.222 163.505 221.693 163.575 222.016C163.646 222.332 163.745 222.61 163.874 222.851V223H160.903C160.763 222.707 160.657 222.35 160.587 221.928C160.522 221.5 160.49 221.061 160.49 220.609ZM160.851 217.19L160.868 218.772H159.559C159.283 218.772 159.049 218.811 158.855 218.887C158.668 218.963 158.516 219.068 158.398 219.203C158.287 219.332 158.205 219.479 158.152 219.643C158.105 219.807 158.082 219.979 158.082 220.161C158.082 220.337 158.123 220.495 158.205 220.636C158.293 220.771 158.41 220.876 158.557 220.952C158.703 221.028 158.867 221.066 159.049 221.066C159.377 221.066 159.655 221.005 159.884 220.882C160.118 220.753 160.297 220.598 160.42 220.416C160.543 220.234 160.604 220.064 160.604 219.906L161.255 221.119C161.138 221.354 161.003 221.591 160.851 221.831C160.704 222.071 160.52 222.294 160.297 222.499C160.08 222.698 159.813 222.862 159.497 222.991C159.181 223.114 158.797 223.176 158.346 223.176C157.76 223.176 157.221 223.056 156.729 222.815C156.242 222.575 155.853 222.241 155.56 221.813C155.267 221.38 155.12 220.882 155.12 220.319C155.12 219.827 155.208 219.388 155.384 219.001C155.565 218.614 155.838 218.286 156.201 218.017C156.564 217.747 157.027 217.542 157.59 217.401C158.152 217.261 158.814 217.19 159.576 217.19H160.851ZM169.13 220.891C169.405 220.891 169.64 220.841 169.833 220.741C170.032 220.636 170.182 220.489 170.281 220.302C170.387 220.108 170.437 219.877 170.431 219.607H173.217C173.223 220.322 173.047 220.949 172.689 221.488C172.338 222.021 171.857 222.438 171.248 222.736C170.645 223.029 169.962 223.176 169.2 223.176C168.456 223.176 167.806 223.056 167.249 222.815C166.692 222.569 166.227 222.229 165.852 221.796C165.482 221.356 165.204 220.844 165.017 220.258C164.835 219.672 164.744 219.036 164.744 218.351V218.148C164.744 217.463 164.835 216.827 165.017 216.241C165.204 215.649 165.482 215.137 165.852 214.703C166.227 214.264 166.689 213.924 167.24 213.684C167.797 213.438 168.444 213.314 169.183 213.314C169.974 213.314 170.671 213.464 171.274 213.763C171.884 214.062 172.361 214.495 172.707 215.063C173.053 215.632 173.223 216.32 173.217 217.129H170.431C170.437 216.842 170.393 216.584 170.299 216.355C170.205 216.127 170.059 215.945 169.859 215.811C169.666 215.67 169.417 215.6 169.112 215.6C168.808 215.6 168.562 215.667 168.374 215.802C168.187 215.937 168.043 216.124 167.943 216.364C167.85 216.599 167.785 216.868 167.75 217.173C167.721 217.478 167.706 217.803 167.706 218.148V218.351C167.706 218.702 167.721 219.033 167.75 219.344C167.785 219.648 167.853 219.918 167.952 220.152C168.052 220.381 168.195 220.562 168.383 220.697C168.57 220.826 168.819 220.891 169.13 220.891ZM179.492 213.49V215.547H173.762V213.49H179.492ZM174.966 211.126H177.928V219.897C177.928 220.149 177.957 220.346 178.016 220.486C178.074 220.621 178.174 220.718 178.314 220.776C178.461 220.829 178.654 220.855 178.895 220.855C179.064 220.855 179.205 220.853 179.316 220.847C179.428 220.835 179.533 220.82 179.633 220.803V222.921C179.381 223.003 179.117 223.064 178.842 223.105C178.566 223.152 178.273 223.176 177.963 223.176C177.33 223.176 176.788 223.076 176.337 222.877C175.892 222.678 175.552 222.364 175.317 221.937C175.083 221.509 174.966 220.952 174.966 220.267V211.126Z" fill="white"/>
<rect x="222" y="196" width="133" height="41" rx="3" fill="#424242"/>
<rect x="222" y="196" width="133" height="41" rx="3" stroke="#424242" stroke-width="4"/>
<path d="M251.34 210.203V223H248.255V210.203H251.34ZM255.189 210.203V212.585H244.493V210.203H255.189ZM258.556 221.884L261.017 213.49H264.198L260.375 224.415C260.293 224.655 260.185 224.913 260.05 225.188C259.915 225.47 259.73 225.736 259.496 225.988C259.262 226.24 258.96 226.445 258.591 226.604C258.228 226.762 257.776 226.841 257.237 226.841C256.95 226.841 256.739 226.826 256.604 226.797C256.476 226.773 256.276 226.729 256.007 226.665V224.547C256.083 224.547 256.147 224.547 256.2 224.547C256.259 224.547 256.323 224.547 256.394 224.547C256.71 224.547 256.962 224.515 257.149 224.45C257.343 224.386 257.489 224.292 257.589 224.169C257.694 224.046 257.776 223.896 257.835 223.721L258.556 221.884ZM257.932 213.49L259.804 220.144L260.129 223.281H258.143L254.759 213.49H257.932ZM267.96 215.318V226.656H264.998V213.49H267.758L267.96 215.318ZM273.796 218.131V218.315C273.796 219.007 273.717 219.648 273.559 220.24C273.4 220.832 273.166 221.348 272.855 221.787C272.545 222.227 272.158 222.569 271.695 222.815C271.238 223.056 270.708 223.176 270.104 223.176C269.536 223.176 269.047 223.05 268.637 222.798C268.227 222.546 267.884 222.197 267.608 221.752C267.333 221.307 267.11 220.797 266.94 220.223C266.771 219.648 266.636 219.042 266.536 218.403V218.166C266.636 217.48 266.771 216.845 266.94 216.259C267.11 215.667 267.333 215.151 267.608 214.712C267.884 214.272 268.224 213.93 268.628 213.684C269.038 213.438 269.527 213.314 270.096 213.314C270.699 213.314 271.229 213.429 271.687 213.657C272.149 213.886 272.536 214.214 272.847 214.642C273.163 215.063 273.4 215.57 273.559 216.162C273.717 216.754 273.796 217.41 273.796 218.131ZM270.834 218.315V218.131C270.834 217.762 270.808 217.425 270.755 217.12C270.702 216.81 270.617 216.54 270.5 216.312C270.389 216.083 270.239 215.907 270.052 215.784C269.864 215.661 269.633 215.6 269.357 215.6C269.041 215.6 268.774 215.649 268.558 215.749C268.347 215.843 268.177 215.989 268.048 216.188C267.925 216.382 267.837 216.625 267.784 216.918C267.737 217.205 267.717 217.542 267.723 217.929V218.649C267.711 219.095 267.755 219.487 267.854 219.827C267.954 220.161 268.127 220.422 268.373 220.609C268.619 220.797 268.953 220.891 269.375 220.891C269.656 220.891 269.891 220.826 270.078 220.697C270.266 220.562 270.415 220.378 270.526 220.144C270.638 219.903 270.717 219.628 270.764 219.317C270.811 219.007 270.834 218.673 270.834 218.315ZM279.72 223.176C278.946 223.176 278.255 223.056 277.646 222.815C277.036 222.569 276.521 222.232 276.099 221.805C275.683 221.377 275.363 220.885 275.141 220.328C274.924 219.771 274.815 219.183 274.815 218.562V218.228C274.815 217.53 274.912 216.886 275.105 216.294C275.299 215.696 275.586 215.175 275.967 214.729C276.348 214.284 276.825 213.938 277.399 213.692C277.974 213.44 278.642 213.314 279.403 213.314C280.077 213.314 280.681 213.423 281.214 213.64C281.747 213.856 282.198 214.167 282.567 214.571C282.942 214.976 283.227 215.465 283.42 216.039C283.619 216.613 283.719 217.258 283.719 217.973V219.177H275.949V217.322H280.827V217.094C280.833 216.777 280.777 216.508 280.66 216.285C280.549 216.062 280.385 215.893 280.168 215.775C279.951 215.658 279.688 215.6 279.377 215.6C279.055 215.6 278.788 215.67 278.577 215.811C278.372 215.951 278.211 216.145 278.094 216.391C277.982 216.631 277.903 216.909 277.856 217.226C277.81 217.542 277.786 217.876 277.786 218.228V218.562C277.786 218.913 277.833 219.232 277.927 219.52C278.026 219.807 278.167 220.053 278.349 220.258C278.536 220.457 278.759 220.612 279.017 220.724C279.28 220.835 279.579 220.891 279.913 220.891C280.317 220.891 280.716 220.814 281.108 220.662C281.501 220.51 281.838 220.258 282.119 219.906L283.464 221.506C283.271 221.781 282.995 222.048 282.638 222.306C282.286 222.563 281.864 222.774 281.372 222.938C280.88 223.097 280.329 223.176 279.72 223.176ZM291.655 219.599C291.655 219.399 291.626 219.221 291.567 219.062C291.509 218.898 291.4 218.746 291.242 218.605C291.084 218.465 290.855 218.324 290.557 218.184C290.264 218.037 289.877 217.885 289.396 217.727C288.834 217.539 288.292 217.328 287.771 217.094C287.249 216.854 286.783 216.575 286.373 216.259C285.963 215.937 285.638 215.562 285.397 215.134C285.157 214.7 285.037 214.196 285.037 213.622C285.037 213.071 285.16 212.576 285.406 212.137C285.652 211.691 285.995 211.313 286.435 211.003C286.88 210.687 287.401 210.446 287.999 210.282C288.597 210.112 289.25 210.027 289.959 210.027C290.896 210.027 291.723 210.191 292.438 210.52C293.158 210.842 293.721 211.302 294.125 211.899C294.535 212.491 294.74 213.191 294.74 214H291.673C291.673 213.678 291.605 213.394 291.471 213.147C291.342 212.901 291.146 212.708 290.882 212.567C290.618 212.427 290.287 212.356 289.889 212.356C289.502 212.356 289.177 212.415 288.913 212.532C288.649 212.649 288.45 212.808 288.315 213.007C288.181 213.2 288.113 213.414 288.113 213.648C288.113 213.842 288.166 214.018 288.271 214.176C288.383 214.328 288.538 214.472 288.737 214.606C288.942 214.741 289.188 214.87 289.476 214.993C289.769 215.116 290.097 215.236 290.46 215.354C291.14 215.57 291.743 215.813 292.271 216.083C292.804 216.347 293.252 216.648 293.615 216.988C293.984 217.322 294.263 217.703 294.45 218.131C294.644 218.559 294.74 219.042 294.74 219.581C294.74 220.155 294.629 220.665 294.406 221.11C294.184 221.556 293.864 221.934 293.448 222.244C293.032 222.549 292.534 222.78 291.954 222.938C291.374 223.097 290.727 223.176 290.012 223.176C289.355 223.176 288.708 223.094 288.069 222.93C287.437 222.76 286.862 222.502 286.347 222.156C285.831 221.805 285.418 221.356 285.107 220.812C284.803 220.261 284.65 219.607 284.65 218.852H287.744C287.744 219.227 287.794 219.543 287.894 219.801C287.993 220.059 288.14 220.267 288.333 220.425C288.526 220.577 288.764 220.688 289.045 220.759C289.326 220.823 289.648 220.855 290.012 220.855C290.404 220.855 290.721 220.8 290.961 220.688C291.201 220.571 291.377 220.419 291.488 220.231C291.6 220.038 291.655 219.827 291.655 219.599ZM300.207 220.891C300.482 220.891 300.717 220.841 300.91 220.741C301.109 220.636 301.259 220.489 301.358 220.302C301.464 220.108 301.514 219.877 301.508 219.607H304.294C304.3 220.322 304.124 220.949 303.767 221.488C303.415 222.021 302.935 222.438 302.325 222.736C301.722 223.029 301.039 223.176 300.277 223.176C299.533 223.176 298.883 223.056 298.326 222.815C297.77 222.569 297.304 222.229 296.929 221.796C296.56 221.356 296.281 220.844 296.094 220.258C295.912 219.672 295.821 219.036 295.821 218.351V218.148C295.821 217.463 295.912 216.827 296.094 216.241C296.281 215.649 296.56 215.137 296.929 214.703C297.304 214.264 297.767 213.924 298.317 213.684C298.874 213.438 299.521 213.314 300.26 213.314C301.051 213.314 301.748 213.464 302.352 213.763C302.961 214.062 303.438 214.495 303.784 215.063C304.13 215.632 304.3 216.32 304.294 217.129H301.508C301.514 216.842 301.47 216.584 301.376 216.355C301.282 216.127 301.136 215.945 300.937 215.811C300.743 215.67 300.494 215.6 300.189 215.6C299.885 215.6 299.639 215.667 299.451 215.802C299.264 215.937 299.12 216.124 299.021 216.364C298.927 216.599 298.862 216.868 298.827 217.173C298.798 217.478 298.783 217.803 298.783 218.148V218.351C298.783 218.702 298.798 219.033 298.827 219.344C298.862 219.648 298.93 219.918 299.029 220.152C299.129 220.381 299.272 220.562 299.46 220.697C299.647 220.826 299.896 220.891 300.207 220.891ZM308.548 215.846V223H305.586V213.49H308.354L308.548 215.846ZM311.36 213.42L311.308 216.171C311.19 216.159 311.032 216.145 310.833 216.127C310.634 216.109 310.467 216.101 310.332 216.101C309.986 216.101 309.688 216.142 309.436 216.224C309.189 216.3 308.984 216.417 308.82 216.575C308.662 216.728 308.545 216.921 308.469 217.155C308.398 217.39 308.366 217.662 308.372 217.973L307.836 217.621C307.836 216.982 307.897 216.402 308.021 215.881C308.149 215.354 308.331 214.899 308.565 214.519C308.8 214.132 309.084 213.836 309.418 213.631C309.752 213.42 310.127 213.314 310.543 213.314C310.689 213.314 310.833 213.323 310.974 213.341C311.12 213.358 311.249 213.385 311.36 213.42ZM315.509 213.49V223H312.538V213.49H315.509ZM312.362 211.038C312.362 210.616 312.515 210.271 312.819 210.001C313.124 209.731 313.52 209.597 314.006 209.597C314.492 209.597 314.888 209.731 315.192 210.001C315.497 210.271 315.649 210.616 315.649 211.038C315.649 211.46 315.497 211.806 315.192 212.075C314.888 212.345 314.492 212.479 314.006 212.479C313.52 212.479 313.124 212.345 312.819 212.075C312.515 211.806 312.362 211.46 312.362 211.038ZM320.325 215.318V226.656H317.363V213.49H320.123L320.325 215.318ZM326.161 218.131V218.315C326.161 219.007 326.082 219.648 325.924 220.24C325.766 220.832 325.531 221.348 325.221 221.787C324.91 222.227 324.523 222.569 324.061 222.815C323.604 223.056 323.073 223.176 322.47 223.176C321.901 223.176 321.412 223.05 321.002 222.798C320.592 222.546 320.249 222.197 319.974 221.752C319.698 221.307 319.476 220.797 319.306 220.223C319.136 219.648 319.001 219.042 318.901 218.403V218.166C319.001 217.48 319.136 216.845 319.306 216.259C319.476 215.667 319.698 215.151 319.974 214.712C320.249 214.272 320.589 213.93 320.993 213.684C321.403 213.438 321.893 213.314 322.461 213.314C323.064 213.314 323.595 213.429 324.052 213.657C324.515 213.886 324.901 214.214 325.212 214.642C325.528 215.063 325.766 215.57 325.924 216.162C326.082 216.754 326.161 217.41 326.161 218.131ZM323.199 218.315V218.131C323.199 217.762 323.173 217.425 323.12 217.12C323.067 216.81 322.982 216.54 322.865 216.312C322.754 216.083 322.604 215.907 322.417 215.784C322.229 215.661 321.998 215.6 321.723 215.6C321.406 215.6 321.14 215.649 320.923 215.749C320.712 215.843 320.542 215.989 320.413 216.188C320.29 216.382 320.202 216.625 320.149 216.918C320.103 217.205 320.082 217.542 320.088 217.929V218.649C320.076 219.095 320.12 219.487 320.22 219.827C320.319 220.161 320.492 220.422 320.738 220.609C320.984 220.797 321.318 220.891 321.74 220.891C322.021 220.891 322.256 220.826 322.443 220.697C322.631 220.562 322.78 220.378 322.892 220.144C323.003 219.903 323.082 219.628 323.129 219.317C323.176 219.007 323.199 218.673 323.199 218.315ZM332.489 213.49V215.547H326.759V213.49H332.489ZM327.963 211.126H330.925V219.897C330.925 220.149 330.954 220.346 331.013 220.486C331.071 220.621 331.171 220.718 331.312 220.776C331.458 220.829 331.651 220.855 331.892 220.855C332.062 220.855 332.202 220.853 332.313 220.847C332.425 220.835 332.53 220.82 332.63 220.803V222.921C332.378 223.003 332.114 223.064 331.839 223.105C331.563 223.152 331.271 223.176 330.96 223.176C330.327 223.176 329.785 223.076 329.334 222.877C328.889 222.678 328.549 222.364 328.314 221.937C328.08 221.509 327.963 220.952 327.963 220.267V211.126Z" fill="white"/>
<rect x="375" y="196" width="76" height="41" rx="3" fill="#424242"/>
<rect x="375" y="196" width="76" height="41" rx="3" stroke="#424242" stroke-width="4"/>
<path d="M403.227 217.56H399.931L399.913 215.538H402.585C403.065 215.538 403.449 215.485 403.736 215.38C404.023 215.269 404.231 215.107 404.36 214.896C404.495 214.686 404.562 214.422 404.562 214.105C404.562 213.742 404.495 213.449 404.36 213.227C404.226 213.004 404.012 212.843 403.719 212.743C403.432 212.638 403.06 212.585 402.603 212.585H401.091V223H398.006V210.203H402.603C403.394 210.203 404.1 210.276 404.721 210.423C405.342 210.563 405.869 210.78 406.303 211.073C406.742 211.366 407.076 211.735 407.305 212.181C407.533 212.62 407.647 213.139 407.647 213.736C407.647 214.258 407.536 214.747 407.313 215.204C407.091 215.661 406.719 216.033 406.197 216.32C405.682 216.602 404.976 216.748 404.079 216.76L403.227 217.56ZM403.104 223H399.184L400.238 220.627H403.104C403.525 220.627 403.862 220.562 404.114 220.434C404.372 220.299 404.557 220.123 404.668 219.906C404.785 219.684 404.844 219.438 404.844 219.168C404.844 218.84 404.788 218.556 404.677 218.315C404.571 218.075 404.401 217.891 404.167 217.762C403.933 217.627 403.619 217.56 403.227 217.56H400.634L400.651 215.538H403.754L404.475 216.347C405.33 216.312 406.007 216.432 406.505 216.707C407.009 216.982 407.369 217.346 407.586 217.797C407.803 218.248 407.911 218.72 407.911 219.212C407.911 220.05 407.729 220.75 407.366 221.312C407.009 221.875 406.473 222.297 405.758 222.578C405.043 222.859 404.158 223 403.104 223ZM415.039 220.688V213.49H418.01V223H415.232L415.039 220.688ZM415.32 218.755L416.094 218.737C416.094 219.376 416.018 219.968 415.865 220.513C415.713 221.052 415.487 221.521 415.188 221.919C414.896 222.317 414.532 222.628 414.099 222.851C413.671 223.067 413.176 223.176 412.613 223.176C412.145 223.176 411.714 223.111 411.321 222.982C410.935 222.848 410.601 222.64 410.319 222.358C410.038 222.071 409.818 221.705 409.66 221.26C409.508 220.809 409.432 220.27 409.432 219.643V213.49H412.394V219.66C412.394 219.871 412.42 220.053 412.473 220.205C412.525 220.357 412.602 220.486 412.701 220.592C412.801 220.691 412.924 220.768 413.07 220.82C413.223 220.867 413.396 220.891 413.589 220.891C414.034 220.891 414.383 220.797 414.635 220.609C414.887 220.422 415.062 220.167 415.162 219.845C415.268 219.522 415.32 219.159 415.32 218.755ZM422.554 215.521V223H419.592V213.49H422.369L422.554 215.521ZM422.202 217.92L421.508 217.938C421.508 217.211 421.596 216.563 421.771 215.995C421.947 215.421 422.196 214.935 422.519 214.536C422.841 214.138 423.225 213.836 423.67 213.631C424.121 213.42 424.622 213.314 425.173 213.314C425.612 213.314 426.014 213.379 426.377 213.508C426.746 213.637 427.062 213.845 427.326 214.132C427.596 214.419 427.801 214.8 427.941 215.274C428.088 215.743 428.161 216.323 428.161 217.015V223H425.182V217.006C425.182 216.625 425.129 216.335 425.023 216.136C424.918 215.931 424.766 215.79 424.566 215.714C424.367 215.638 424.124 215.6 423.837 215.6C423.532 215.6 423.274 215.658 423.063 215.775C422.853 215.893 422.683 216.057 422.554 216.268C422.431 216.473 422.34 216.716 422.281 216.997C422.229 217.278 422.202 217.586 422.202 217.92Z" fill="white"/>
<rect x="471" y="196" width="104" height="41" rx="3" fill="#424242"/>
<rect x="471" y="196" width="104" height="41" rx="3" stroke="#424242" stroke-width="4"/>
<path d="M502.812 220.627V223H496.343V220.627H502.812ZM497.441 210.203V223H494.356V210.203H497.441ZM508.911 220.609V216.689C508.911 216.42 508.873 216.188 508.797 215.995C508.721 215.802 508.601 215.652 508.437 215.547C508.272 215.436 508.053 215.38 507.777 215.38C507.555 215.38 507.364 215.418 507.206 215.494C507.048 215.57 506.928 215.685 506.846 215.837C506.764 215.989 506.723 216.183 506.723 216.417H503.761C503.761 215.978 503.857 215.57 504.051 215.195C504.25 214.814 504.531 214.483 504.895 214.202C505.264 213.921 505.703 213.704 506.213 213.552C506.729 213.394 507.303 213.314 507.936 213.314C508.691 213.314 509.365 213.44 509.957 213.692C510.555 213.944 511.026 214.322 511.372 214.826C511.718 215.324 511.891 215.951 511.891 216.707V220.601C511.891 221.222 511.926 221.693 511.996 222.016C512.066 222.332 512.166 222.61 512.295 222.851V223H509.324C509.184 222.707 509.078 222.35 509.008 221.928C508.943 221.5 508.911 221.061 508.911 220.609ZM509.271 217.19L509.289 218.772H507.979C507.704 218.772 507.47 218.811 507.276 218.887C507.089 218.963 506.937 219.068 506.819 219.203C506.708 219.332 506.626 219.479 506.573 219.643C506.526 219.807 506.503 219.979 506.503 220.161C506.503 220.337 506.544 220.495 506.626 220.636C506.714 220.771 506.831 220.876 506.978 220.952C507.124 221.028 507.288 221.066 507.47 221.066C507.798 221.066 508.076 221.005 508.305 220.882C508.539 220.753 508.718 220.598 508.841 220.416C508.964 220.234 509.025 220.064 509.025 219.906L509.676 221.119C509.559 221.354 509.424 221.591 509.271 221.831C509.125 222.071 508.94 222.294 508.718 222.499C508.501 222.698 508.234 222.862 507.918 222.991C507.602 223.114 507.218 223.176 506.767 223.176C506.181 223.176 505.642 223.056 505.149 222.815C504.663 222.575 504.273 222.241 503.98 221.813C503.688 221.38 503.541 220.882 503.541 220.319C503.541 219.827 503.629 219.388 503.805 219.001C503.986 218.614 504.259 218.286 504.622 218.017C504.985 217.747 505.448 217.542 506.011 217.401C506.573 217.261 507.235 217.19 507.997 217.19H509.271ZM516.522 215.846V223H513.561V213.49H516.329L516.522 215.846ZM519.335 213.42L519.282 216.171C519.165 216.159 519.007 216.145 518.808 216.127C518.608 216.109 518.441 216.101 518.307 216.101C517.961 216.101 517.662 216.142 517.41 216.224C517.164 216.3 516.959 216.417 516.795 216.575C516.637 216.728 516.52 216.921 516.443 217.155C516.373 217.39 516.341 217.662 516.347 217.973L515.811 217.621C515.811 216.982 515.872 216.402 515.995 215.881C516.124 215.354 516.306 214.899 516.54 214.519C516.774 214.132 517.059 213.836 517.393 213.631C517.727 213.42 518.102 213.314 518.518 213.314C518.664 213.314 518.808 213.323 518.948 213.341C519.095 213.358 519.224 213.385 519.335 213.42ZM525.03 220.609V216.689C525.03 216.42 524.992 216.188 524.916 215.995C524.84 215.802 524.72 215.652 524.556 215.547C524.392 215.436 524.172 215.38 523.896 215.38C523.674 215.38 523.483 215.418 523.325 215.494C523.167 215.57 523.047 215.685 522.965 215.837C522.883 215.989 522.842 216.183 522.842 216.417H519.88C519.88 215.978 519.977 215.57 520.17 215.195C520.369 214.814 520.65 214.483 521.014 214.202C521.383 213.921 521.822 213.704 522.332 213.552C522.848 213.394 523.422 213.314 524.055 213.314C524.811 213.314 525.484 213.44 526.076 213.692C526.674 213.944 527.146 214.322 527.491 214.826C527.837 215.324 528.01 215.951 528.01 216.707V220.601C528.01 221.222 528.045 221.693 528.115 222.016C528.186 222.332 528.285 222.61 528.414 222.851V223H525.443C525.303 222.707 525.197 222.35 525.127 221.928C525.062 221.5 525.03 221.061 525.03 220.609ZM525.391 217.19L525.408 218.772H524.099C523.823 218.772 523.589 218.811 523.396 218.887C523.208 218.963 523.056 219.068 522.938 219.203C522.827 219.332 522.745 219.479 522.692 219.643C522.646 219.807 522.622 219.979 522.622 220.161C522.622 220.337 522.663 220.495 522.745 220.636C522.833 220.771 522.95 220.876 523.097 220.952C523.243 221.028 523.407 221.066 523.589 221.066C523.917 221.066 524.195 221.005 524.424 220.882C524.658 220.753 524.837 220.598 524.96 220.416C525.083 220.234 525.145 220.064 525.145 219.906L525.795 221.119C525.678 221.354 525.543 221.591 525.391 221.831C525.244 222.071 525.06 222.294 524.837 222.499C524.62 222.698 524.354 222.862 524.037 222.991C523.721 223.114 523.337 223.176 522.886 223.176C522.3 223.176 521.761 223.056 521.269 222.815C520.782 222.575 520.393 222.241 520.1 221.813C519.807 221.38 519.66 220.882 519.66 220.319C519.66 219.827 519.748 219.388 519.924 219.001C520.105 218.614 520.378 218.286 520.741 218.017C521.104 217.747 521.567 217.542 522.13 217.401C522.692 217.261 523.354 217.19 524.116 217.19H525.391ZM532.94 220.97L534.812 213.49H537.933L534.821 223H532.976L532.94 220.97ZM531.833 213.49L533.679 220.97L533.661 223H531.807L528.704 213.49H531.833ZM543.294 223.176C542.521 223.176 541.829 223.056 541.22 222.815C540.61 222.569 540.095 222.232 539.673 221.805C539.257 221.377 538.938 220.885 538.715 220.328C538.498 219.771 538.39 219.183 538.39 218.562V218.228C538.39 217.53 538.486 216.886 538.68 216.294C538.873 215.696 539.16 215.175 539.541 214.729C539.922 214.284 540.399 213.938 540.974 213.692C541.548 213.44 542.216 213.314 542.978 213.314C543.651 213.314 544.255 213.423 544.788 213.64C545.321 213.856 545.772 214.167 546.142 214.571C546.517 214.976 546.801 215.465 546.994 216.039C547.193 216.613 547.293 217.258 547.293 217.973V219.177H539.523V217.322H544.401V217.094C544.407 216.777 544.352 216.508 544.234 216.285C544.123 216.062 543.959 215.893 543.742 215.775C543.525 215.658 543.262 215.6 542.951 215.6C542.629 215.6 542.362 215.67 542.151 215.811C541.946 215.951 541.785 216.145 541.668 216.391C541.557 216.631 541.478 216.909 541.431 217.226C541.384 217.542 541.36 217.876 541.36 218.228V218.562C541.36 218.913 541.407 219.232 541.501 219.52C541.601 219.807 541.741 220.053 541.923 220.258C542.11 220.457 542.333 220.612 542.591 220.724C542.854 220.835 543.153 220.891 543.487 220.891C543.892 220.891 544.29 220.814 544.683 220.662C545.075 220.51 545.412 220.258 545.693 219.906L547.038 221.506C546.845 221.781 546.569 222.048 546.212 222.306C545.86 222.563 545.438 222.774 544.946 222.938C544.454 223.097 543.903 223.176 543.294 223.176ZM551.626 209.5V223H548.655V209.5H551.626Z" fill="white"/>
<rect x="595" y="196" width="75" height="41" rx="3" fill="#424242"/>
<rect x="595" y="196" width="75" height="41" rx="3" stroke="#424242" stroke-width="4"/>
<path d="M620.863 215.521V223H617.901V213.49H620.679L620.863 215.521ZM620.512 217.92L619.817 217.938C619.817 217.211 619.905 216.563 620.081 215.995C620.257 215.421 620.506 214.935 620.828 214.536C621.15 214.138 621.534 213.836 621.979 213.631C622.431 213.42 622.932 213.314 623.482 213.314C623.922 213.314 624.323 213.379 624.687 213.508C625.056 213.637 625.372 213.845 625.636 214.132C625.905 214.419 626.11 214.8 626.251 215.274C626.397 215.743 626.471 216.323 626.471 217.015V223H623.491V217.006C623.491 216.625 623.438 216.335 623.333 216.136C623.228 215.931 623.075 215.79 622.876 215.714C622.677 215.638 622.434 215.6 622.146 215.6C621.842 215.6 621.584 215.658 621.373 215.775C621.162 215.893 620.992 216.057 620.863 216.268C620.74 216.473 620.649 216.716 620.591 216.997C620.538 217.278 620.512 217.586 620.512 217.92ZM636.956 219.476C636.956 220.29 636.763 220.973 636.376 221.523C635.995 222.074 635.468 222.487 634.794 222.763C634.126 223.038 633.364 223.176 632.509 223.176C631.659 223.176 630.895 223.038 630.215 222.763C629.541 222.487 629.008 222.074 628.615 221.523C628.223 220.973 628.026 220.29 628.026 219.476C628.026 218.919 628.138 218.421 628.36 217.981C628.589 217.536 628.905 217.158 629.31 216.848C629.714 216.537 630.186 216.3 630.725 216.136C631.27 215.972 631.858 215.89 632.491 215.89C633.347 215.89 634.111 216.036 634.785 216.329C635.459 216.616 635.989 217.026 636.376 217.56C636.763 218.093 636.956 218.731 636.956 219.476ZM633.977 219.238C633.977 218.887 633.915 218.591 633.792 218.351C633.669 218.104 633.496 217.917 633.273 217.788C633.051 217.659 632.79 217.595 632.491 217.595C632.198 217.595 631.938 217.659 631.709 217.788C631.486 217.917 631.311 218.104 631.182 218.351C631.059 218.591 630.997 218.887 630.997 219.238C630.997 219.578 631.062 219.874 631.19 220.126C631.319 220.372 631.495 220.562 631.718 220.697C631.946 220.826 632.21 220.891 632.509 220.891C632.808 220.891 633.065 220.826 633.282 220.697C633.505 220.562 633.675 220.372 633.792 220.126C633.915 219.874 633.977 219.578 633.977 219.238ZM636.692 213.622C636.692 214.29 636.514 214.876 636.156 215.38C635.805 215.878 635.312 216.268 634.68 216.549C634.053 216.824 633.329 216.962 632.509 216.962C631.694 216.962 630.968 216.824 630.329 216.549C629.696 216.268 629.198 215.878 628.835 215.38C628.478 214.876 628.299 214.29 628.299 213.622C628.299 212.837 628.478 212.178 628.835 211.645C629.198 211.111 629.696 210.707 630.329 210.432C630.962 210.156 631.683 210.019 632.491 210.019C633.312 210.019 634.038 210.156 634.671 210.432C635.304 210.707 635.799 211.111 636.156 211.645C636.514 212.178 636.692 212.837 636.692 213.622ZM633.73 213.78C633.73 213.476 633.684 213.215 633.59 212.998C633.496 212.775 633.358 212.605 633.177 212.488C632.995 212.365 632.767 212.304 632.491 212.304C632.228 212.304 632.005 212.362 631.823 212.479C631.642 212.597 631.504 212.767 631.41 212.989C631.316 213.206 631.27 213.47 631.27 213.78C631.27 214.085 631.316 214.352 631.41 214.58C631.504 214.809 631.642 214.987 631.823 215.116C632.011 215.245 632.239 215.31 632.509 215.31C632.784 215.31 633.01 215.245 633.186 215.116C633.367 214.987 633.502 214.809 633.59 214.58C633.684 214.352 633.73 214.085 633.73 213.78ZM641.465 215.521V223H638.503V213.49H641.28L641.465 215.521ZM641.113 217.92L640.419 217.938C640.419 217.211 640.507 216.563 640.683 215.995C640.858 215.421 641.107 214.935 641.43 214.536C641.752 214.138 642.136 213.836 642.581 213.631C643.032 213.42 643.533 213.314 644.084 213.314C644.523 213.314 644.925 213.379 645.288 213.508C645.657 213.637 645.974 213.845 646.237 214.132C646.507 214.419 646.712 214.8 646.853 215.274C646.999 215.743 647.072 216.323 647.072 217.015V223H644.093V217.006C644.093 216.625 644.04 216.335 643.935 216.136C643.829 215.931 643.677 215.79 643.478 215.714C643.278 215.638 643.035 215.6 642.748 215.6C642.443 215.6 642.186 215.658 641.975 215.775C641.764 215.893 641.594 216.057 641.465 216.268C641.342 216.473 641.251 216.716 641.192 216.997C641.14 217.278 641.113 217.586 641.113 217.92Z" fill="white"/>
<path d="M1066 0H1348C1356.28 0 1363 6.71573 1363 15V282C1363 290.284 1356.28 297 1348 297H1066V0Z" fill="white"/>
<g clip-path="url(#clip0_3_61)">
<rect width="260" height="247" transform="translate(1084.5 25)" fill="white"/>
<path d="M1249.49 100.962C1267.92 113.905 1281.91 132.163 1289.59 153.28C1297.27 174.396 1298.26 197.357 1292.42 219.073L1258.91 210.206C1262.91 195.311 1262.23 179.562 1256.96 165.077C1251.7 150.592 1242.1 138.068 1229.46 129.19L1249.49 100.962Z" fill="#99ABC7"/>
<ellipse cx="1307.41" cy="134.579" rx="16.7461" ry="16.7461" transform="rotate(-99.7799 1307.41 134.579)" fill="#99ABC7"/>
<path d="M1157.62 142.342C1162.18 120.344 1173.37 100.272 1189.69 84.8262C1206 69.3804 1226.65 59.3026 1248.86 55.9493L1254.02 90.0913C1238.78 92.3915 1224.62 99.3042 1213.43 109.899C1202.24 120.494 1194.56 134.262 1191.43 149.351L1157.62 142.342Z" fill="#FFC65B"/>
<ellipse cx="1178.69" cy="68.8113" rx="16.7461" ry="16.7461" transform="rotate(146.712 1178.69 68.8113)" fill="#FFC65B"/>
<path d="M1242.67 193.172C1222.09 202.175 1199.24 204.658 1177.2 200.285C1155.17 195.912 1135 184.894 1119.42 168.713L1144.29 144.76C1154.98 155.859 1168.81 163.417 1183.93 166.416C1199.04 169.416 1214.71 167.713 1228.83 161.537L1242.67 193.172Z" fill="#EB6D6F"/>
<ellipse cx="1170.5" cy="218.519" rx="16.7461" ry="16.7461" transform="rotate(21.3728 1170.5 218.519)" fill="#EB6D6F"/>
</g>
<defs>
<clipPath id="clip0_3_61">
<rect width="260" height="247" fill="white" transform="translate(1084.5 25)"/>
</clipPath>
</defs>
</svg>
