<svg width="1363" height="163" viewBox="0 0 1363 163" fill="none" xmlns="http://www.w3.org/2000/svg">
<path d="M0 15C0 6.71573 6.71573 0 15 0H37V163H15C6.71573 163 0 156.284 0 148V15Z" fill="#424242"/>
<rect width="1097" height="163" transform="translate(37)" fill="#F0F0F0"/>
<path d="M101.906 53.9219L94.3945 51.2383V48.0859L104.602 52.375V54.6367L101.906 53.9219ZM94.3945 56.1719L101.918 53.4297L104.602 52.7852V55.0352L94.3945 59.3242V56.1719ZM126.914 52.0703V52.8789C126.914 54.1758 126.738 55.3398 126.387 56.3711C126.035 57.4023 125.539 58.2812 124.898 59.0078C124.258 59.7266 123.492 60.2773 122.602 60.6602C121.719 61.043 120.738 61.2344 119.66 61.2344C118.59 61.2344 117.609 61.043 116.719 60.6602C115.836 60.2773 115.07 59.7266 114.422 59.0078C113.773 58.2812 113.27 57.4023 112.91 56.3711C112.559 55.3398 112.383 54.1758 112.383 52.8789V52.0703C112.383 50.7656 112.559 49.6016 112.91 48.5781C113.262 47.5469 113.758 46.668 114.398 45.9414C115.047 45.2148 115.812 44.6602 116.695 44.2773C117.586 43.8945 118.566 43.7031 119.637 43.7031C120.715 43.7031 121.695 43.8945 122.578 44.2773C123.469 44.6602 124.234 45.2148 124.875 45.9414C125.523 46.668 126.023 47.5469 126.375 48.5781C126.734 49.6016 126.914 50.7656 126.914 52.0703ZM123.363 52.8789V52.0469C123.363 51.1406 123.281 50.3438 123.117 49.6562C122.953 48.9688 122.711 48.3906 122.391 47.9219C122.07 47.4531 121.68 47.1016 121.219 46.8672C120.758 46.625 120.23 46.5039 119.637 46.5039C119.043 46.5039 118.516 46.625 118.055 46.8672C117.602 47.1016 117.215 47.4531 116.895 47.9219C116.582 48.3906 116.344 48.9688 116.18 49.6562C116.016 50.3438 115.934 51.1406 115.934 52.0469V52.8789C115.934 53.7773 116.016 54.5742 116.18 55.2695C116.344 55.957 116.586 56.5391 116.906 57.0156C117.227 57.4844 117.617 57.8398 118.078 58.082C118.539 58.3242 119.066 58.4453 119.66 58.4453C120.254 58.4453 120.781 58.3242 121.242 58.082C121.703 57.8398 122.09 57.4844 122.402 57.0156C122.715 56.5391 122.953 55.957 123.117 55.2695C123.281 54.5742 123.363 53.7773 123.363 52.8789ZM132.609 51.0859V61H129.234V48.3203H132.41L132.609 51.0859ZM136.43 48.2383L136.371 51.3672C136.207 51.3438 136.008 51.3242 135.773 51.3086C135.547 51.2852 135.34 51.2734 135.152 51.2734C134.676 51.2734 134.262 51.3359 133.91 51.4609C133.566 51.5781 133.277 51.7539 133.043 51.9883C132.816 52.2227 132.645 52.5078 132.527 52.8438C132.418 53.1797 132.355 53.5625 132.34 53.9922L131.66 53.7812C131.66 52.9609 131.742 52.207 131.906 51.5195C132.07 50.8242 132.309 50.2188 132.621 49.7031C132.941 49.1875 133.332 48.7891 133.793 48.5078C134.254 48.2266 134.781 48.0859 135.375 48.0859C135.562 48.0859 135.754 48.1016 135.949 48.1328C136.145 48.1562 136.305 48.1914 136.43 48.2383ZM143.027 58.5977C143.441 58.5977 143.809 58.5195 144.129 58.3633C144.449 58.1992 144.699 57.9727 144.879 57.6836C145.066 57.3867 145.164 57.0391 145.172 56.6406H148.348C148.34 57.5312 148.102 58.3242 147.633 59.0195C147.164 59.707 146.535 60.25 145.746 60.6484C144.957 61.0391 144.074 61.2344 143.098 61.2344C142.113 61.2344 141.254 61.0703 140.52 60.7422C139.793 60.4141 139.188 59.9609 138.703 59.3828C138.219 58.7969 137.855 58.1172 137.613 57.3438C137.371 56.5625 137.25 55.7266 137.25 54.8359V54.4961C137.25 53.5977 137.371 52.7617 137.613 51.9883C137.855 51.207 138.219 50.5273 138.703 49.9492C139.188 49.3633 139.793 48.9062 140.52 48.5781C141.246 48.25 142.098 48.0859 143.074 48.0859C144.113 48.0859 145.023 48.2852 145.805 48.6836C146.594 49.082 147.211 49.6523 147.656 50.3945C148.109 51.1289 148.34 52 148.348 53.0078H145.172C145.164 52.5859 145.074 52.2031 144.902 51.8594C144.738 51.5156 144.496 51.2422 144.176 51.0391C143.863 50.8281 143.477 50.7227 143.016 50.7227C142.523 50.7227 142.121 50.8281 141.809 51.0391C141.496 51.2422 141.254 51.5234 141.082 51.8828C140.91 52.2344 140.789 52.6367 140.719 53.0898C140.656 53.5352 140.625 54.0039 140.625 54.4961V54.8359C140.625 55.3281 140.656 55.8008 140.719 56.2539C140.781 56.707 140.898 57.1094 141.07 57.4609C141.25 57.8125 141.496 58.0898 141.809 58.293C142.121 58.4961 142.527 58.5977 143.027 58.5977ZM153.598 43V61H150.223V43H153.598ZM153.117 54.2148H152.191C152.199 53.332 152.316 52.5195 152.543 51.7773C152.77 51.0273 153.094 50.3789 153.516 49.832C153.938 49.2773 154.441 48.8477 155.027 48.543C155.621 48.2383 156.277 48.0859 156.996 48.0859C157.621 48.0859 158.188 48.1758 158.695 48.3555C159.211 48.5273 159.652 48.8086 160.02 49.1992C160.395 49.582 160.684 50.0859 160.887 50.7109C161.09 51.3359 161.191 52.0938 161.191 52.9844V61H157.793V52.9609C157.793 52.3984 157.711 51.957 157.547 51.6367C157.391 51.3086 157.16 51.0781 156.855 50.9453C156.559 50.8047 156.191 50.7344 155.754 50.7344C155.27 50.7344 154.855 50.8242 154.512 51.0039C154.176 51.1836 153.906 51.4336 153.703 51.7539C153.5 52.0664 153.352 52.4336 153.258 52.8555C153.164 53.2773 153.117 53.7305 153.117 54.2148ZM169.594 61.2344C168.609 61.2344 167.727 61.0781 166.945 60.7656C166.164 60.4453 165.5 60.0039 164.953 59.4414C164.414 58.8789 164 58.2266 163.711 57.4844C163.422 56.7344 163.277 55.9375 163.277 55.0938V54.625C163.277 53.6641 163.414 52.7852 163.688 51.9883C163.961 51.1914 164.352 50.5 164.859 49.9141C165.375 49.3281 166 48.8789 166.734 48.5664C167.469 48.2461 168.297 48.0859 169.219 48.0859C170.117 48.0859 170.914 48.2344 171.609 48.5312C172.305 48.8281 172.887 49.25 173.355 49.7969C173.832 50.3438 174.191 51 174.434 51.7656C174.676 52.5234 174.797 53.3672 174.797 54.2969V55.7031H164.719V53.4531H171.48V53.1953C171.48 52.7266 171.395 52.3086 171.223 51.9414C171.059 51.5664 170.809 51.2695 170.473 51.0508C170.137 50.832 169.707 50.7227 169.184 50.7227C168.738 50.7227 168.355 50.8203 168.035 51.0156C167.715 51.2109 167.453 51.4844 167.25 51.8359C167.055 52.1875 166.906 52.6016 166.805 53.0781C166.711 53.5469 166.664 54.0625 166.664 54.625V55.0938C166.664 55.6016 166.734 56.0703 166.875 56.5C167.023 56.9297 167.23 57.3008 167.496 57.6133C167.77 57.9258 168.098 58.168 168.48 58.3398C168.871 58.5117 169.312 58.5977 169.805 58.5977C170.414 58.5977 170.98 58.4805 171.504 58.2461C172.035 58.0039 172.492 57.6406 172.875 57.1562L174.516 58.9375C174.25 59.3203 173.887 59.6875 173.426 60.0391C172.973 60.3906 172.426 60.6797 171.785 60.9062C171.145 61.125 170.414 61.2344 169.594 61.2344ZM183.574 57.4961C183.574 57.2539 183.504 57.0352 183.363 56.8398C183.223 56.6445 182.961 56.4648 182.578 56.3008C182.203 56.1289 181.66 55.9727 180.949 55.832C180.309 55.6914 179.711 55.5156 179.156 55.3047C178.609 55.0859 178.133 54.8242 177.727 54.5195C177.328 54.2148 177.016 53.8555 176.789 53.4414C176.562 53.0195 176.449 52.5391 176.449 52C176.449 51.4688 176.562 50.9688 176.789 50.5C177.023 50.0312 177.355 49.6172 177.785 49.2578C178.223 48.8906 178.754 48.6055 179.379 48.4023C180.012 48.1914 180.723 48.0859 181.512 48.0859C182.613 48.0859 183.559 48.2617 184.348 48.6133C185.145 48.9648 185.754 49.4492 186.176 50.0664C186.605 50.6758 186.82 51.3711 186.82 52.1523H183.445C183.445 51.8242 183.375 51.5312 183.234 51.2734C183.102 51.0078 182.891 50.8008 182.602 50.6523C182.32 50.4961 181.953 50.418 181.5 50.418C181.125 50.418 180.801 50.4844 180.527 50.6172C180.254 50.7422 180.043 50.9141 179.895 51.1328C179.754 51.3438 179.684 51.5781 179.684 51.8359C179.684 52.0312 179.723 52.207 179.801 52.3633C179.887 52.5117 180.023 52.6484 180.211 52.7734C180.398 52.8984 180.641 53.0156 180.938 53.125C181.242 53.2266 181.617 53.3203 182.062 53.4062C182.977 53.5938 183.793 53.8398 184.512 54.1445C185.23 54.4414 185.801 54.8477 186.223 55.3633C186.645 55.8711 186.855 56.5391 186.855 57.3672C186.855 57.9297 186.73 58.4453 186.48 58.9141C186.23 59.3828 185.871 59.793 185.402 60.1445C184.934 60.4883 184.371 60.7578 183.715 60.9531C183.066 61.1406 182.336 61.2344 181.523 61.2344C180.344 61.2344 179.344 61.0234 178.523 60.6016C177.711 60.1797 177.094 59.6445 176.672 58.9961C176.258 58.3398 176.051 57.668 176.051 56.9805H179.25C179.266 57.4414 179.383 57.8125 179.602 58.0938C179.828 58.375 180.113 58.5781 180.457 58.7031C180.809 58.8281 181.188 58.8906 181.594 58.8906C182.031 58.8906 182.395 58.832 182.684 58.7148C182.973 58.5898 183.191 58.4258 183.34 58.2227C183.496 58.0117 183.574 57.7695 183.574 57.4961ZM195.258 48.3203V50.7109H187.875V48.3203H195.258ZM189.703 45.1914H193.078V57.1797C193.078 57.5469 193.125 57.8281 193.219 58.0234C193.32 58.2188 193.469 58.3555 193.664 58.4336C193.859 58.5039 194.105 58.5391 194.402 58.5391C194.613 58.5391 194.801 58.5312 194.965 58.5156C195.137 58.4922 195.281 58.4688 195.398 58.4453L195.41 60.9297C195.121 61.0234 194.809 61.0977 194.473 61.1523C194.137 61.207 193.766 61.2344 193.359 61.2344C192.617 61.2344 191.969 61.1133 191.414 60.8711C190.867 60.6211 190.445 60.2227 190.148 59.6758C189.852 59.1289 189.703 58.4102 189.703 57.5195V45.1914ZM200.555 51.0859V61H197.18V48.3203H200.355L200.555 51.0859ZM204.375 48.2383L204.316 51.3672C204.152 51.3438 203.953 51.3242 203.719 51.3086C203.492 51.2852 203.285 51.2734 203.098 51.2734C202.621 51.2734 202.207 51.3359 201.855 51.4609C201.512 51.5781 201.223 51.7539 200.988 51.9883C200.762 52.2227 200.59 52.5078 200.473 52.8438C200.363 53.1797 200.301 53.5625 200.285 53.9922L199.605 53.7812C199.605 52.9609 199.688 52.207 199.852 51.5195C200.016 50.8242 200.254 50.2188 200.566 49.7031C200.887 49.1875 201.277 48.7891 201.738 48.5078C202.199 48.2266 202.727 48.0859 203.32 48.0859C203.508 48.0859 203.699 48.1016 203.895 48.1328C204.09 48.1562 204.25 48.1914 204.375 48.2383ZM209.531 48.3203V61H206.145V48.3203H209.531ZM205.934 45.0156C205.934 44.5234 206.105 44.1172 206.449 43.7969C206.793 43.4766 207.254 43.3164 207.832 43.3164C208.402 43.3164 208.859 43.4766 209.203 43.7969C209.555 44.1172 209.73 44.5234 209.73 45.0156C209.73 45.5078 209.555 45.9141 209.203 46.2344C208.859 46.5547 208.402 46.7148 207.832 46.7148C207.254 46.7148 206.793 46.5547 206.449 46.2344C206.105 45.9141 205.934 45.5078 205.934 45.0156ZM215.695 42.9883V61H212.32V42.9883H215.695ZM223.688 48.3203L218.18 54.6016L215.227 57.5898L213.996 55.1523L216.34 52.1758L219.633 48.3203H223.688ZM220.184 61L216.434 55.1406L218.766 53.1016L224.074 61H220.184Z" fill="#888888"/>
<path d="M106.688 119H99.1172L99.1641 112.672H106.688C108.25 112.672 109.57 112.297 110.648 111.547C111.742 110.797 112.57 109.68 113.133 108.195C113.711 106.695 114 104.852 114 102.664V101.188C114 99.5469 113.836 98.1094 113.508 96.875C113.195 95.625 112.727 94.5859 112.102 93.7578C111.477 92.9141 110.695 92.2812 109.758 91.8594C108.836 91.4375 107.773 91.2266 106.57 91.2266H98.9766V84.875H106.57C108.883 84.875 111 85.2734 112.922 86.0703C114.859 86.8516 116.531 87.9766 117.938 89.4453C119.359 90.8984 120.453 92.625 121.219 94.625C122 96.6094 122.391 98.8125 122.391 101.234V102.664C122.391 105.07 122 107.273 121.219 109.273C120.453 111.273 119.367 113 117.961 114.453C116.555 115.906 114.891 117.031 112.969 117.828C111.062 118.609 108.969 119 106.688 119ZM103.828 84.875V119H95.6016V84.875H103.828ZM138.586 119.469C136.523 119.469 134.68 119.148 133.055 118.508C131.43 117.852 130.055 116.953 128.93 115.812C127.82 114.672 126.969 113.359 126.375 111.875C125.797 110.391 125.508 108.82 125.508 107.164V106.273C125.508 104.414 125.766 102.695 126.281 101.117C126.797 99.5234 127.562 98.1328 128.578 96.9453C129.594 95.7578 130.867 94.8359 132.398 94.1797C133.93 93.5078 135.711 93.1719 137.742 93.1719C139.539 93.1719 141.148 93.4609 142.57 94.0391C143.992 94.6172 145.195 95.4453 146.18 96.5234C147.18 97.6016 147.938 98.9062 148.453 100.438C148.984 101.969 149.25 103.688 149.25 105.594V108.805H128.531V103.859H141.539V103.25C141.555 102.406 141.406 101.688 141.094 101.094C140.797 100.5 140.359 100.047 139.781 99.7344C139.203 99.4219 138.5 99.2656 137.672 99.2656C136.812 99.2656 136.102 99.4531 135.539 99.8281C134.992 100.203 134.562 100.719 134.25 101.375C133.953 102.016 133.742 102.758 133.617 103.602C133.492 104.445 133.43 105.336 133.43 106.273V107.164C133.43 108.102 133.555 108.953 133.805 109.719C134.07 110.484 134.445 111.141 134.93 111.688C135.43 112.219 136.023 112.633 136.711 112.93C137.414 113.227 138.211 113.375 139.102 113.375C140.18 113.375 141.242 113.172 142.289 112.766C143.336 112.359 144.234 111.688 144.984 110.75L148.57 115.016C148.055 115.75 147.32 116.461 146.367 117.148C145.43 117.836 144.305 118.398 142.992 118.836C141.68 119.258 140.211 119.469 138.586 119.469ZM160.43 99.0078V119H152.531V93.6406H159.938L160.43 99.0078ZM159.469 105.453L157.664 105.5C157.664 103.719 157.875 102.078 158.297 100.578C158.719 99.0781 159.344 97.7734 160.172 96.6641C161 95.5547 162.016 94.6953 163.219 94.0859C164.438 93.4766 165.844 93.1719 167.438 93.1719C168.547 93.1719 169.555 93.3438 170.461 93.6875C171.367 94.0156 172.148 94.5391 172.805 95.2578C173.461 95.9609 173.961 96.8828 174.305 98.0234C174.664 99.1484 174.844 100.5 174.844 102.078V119H166.945V103.086C166.945 102.008 166.82 101.195 166.57 100.648C166.336 100.102 165.992 99.7344 165.539 99.5469C165.086 99.3594 164.531 99.2656 163.875 99.2656C163.188 99.2656 162.57 99.4219 162.023 99.7344C161.477 100.047 161.008 100.484 160.617 101.047C160.242 101.594 159.953 102.242 159.75 102.992C159.562 103.742 159.469 104.562 159.469 105.453ZM173.953 105.453L171.75 105.5C171.75 103.719 171.945 102.078 172.336 100.578C172.742 99.0781 173.344 97.7734 174.141 96.6641C174.953 95.5547 175.961 94.6953 177.164 94.0859C178.367 93.4766 179.766 93.1719 181.359 93.1719C182.516 93.1719 183.578 93.3438 184.547 93.6875C185.516 94.0312 186.352 94.5859 187.055 95.3516C187.758 96.1172 188.305 97.1328 188.695 98.3984C189.086 99.6484 189.281 101.195 189.281 103.039V119H181.359V103.039C181.359 101.992 181.234 101.203 180.984 100.672C180.75 100.125 180.406 99.7578 179.953 99.5703C179.5 99.3672 178.961 99.2656 178.336 99.2656C177.586 99.2656 176.938 99.4219 176.391 99.7344C175.844 100.047 175.383 100.484 175.008 101.047C174.648 101.594 174.383 102.242 174.211 102.992C174.039 103.742 173.953 104.562 173.953 105.453ZM192.82 106.578V106.086C192.82 104.227 193.086 102.516 193.617 100.953C194.148 99.375 194.93 98.0078 195.961 96.8516C196.992 95.6953 198.266 94.7969 199.781 94.1562C201.297 93.5 203.047 93.1719 205.031 93.1719C207.031 93.1719 208.789 93.5 210.305 94.1562C211.836 94.7969 213.117 95.6953 214.148 96.8516C215.18 98.0078 215.961 99.375 216.492 100.953C217.023 102.516 217.289 104.227 217.289 106.086V106.578C217.289 108.422 217.023 110.133 216.492 111.711C215.961 113.273 215.18 114.641 214.148 115.812C213.117 116.969 211.844 117.867 210.328 118.508C208.812 119.148 207.062 119.469 205.078 119.469C203.094 119.469 201.336 119.148 199.805 118.508C198.273 117.867 196.992 116.969 195.961 115.812C194.93 114.641 194.148 113.273 193.617 111.711C193.086 110.133 192.82 108.422 192.82 106.578ZM200.719 106.086V106.578C200.719 107.531 200.789 108.422 200.93 109.25C201.07 110.078 201.305 110.805 201.633 111.43C201.961 112.039 202.406 112.516 202.969 112.859C203.531 113.203 204.234 113.375 205.078 113.375C205.906 113.375 206.594 113.203 207.141 112.859C207.703 112.516 208.148 112.039 208.477 111.43C208.805 110.805 209.039 110.078 209.18 109.25C209.32 108.422 209.391 107.531 209.391 106.578V106.086C209.391 105.164 209.32 104.297 209.18 103.484C209.039 102.656 208.805 101.93 208.477 101.305C208.148 100.664 207.703 100.164 207.141 99.8047C206.578 99.4453 205.875 99.2656 205.031 99.2656C204.203 99.2656 203.508 99.4453 202.945 99.8047C202.398 100.164 201.961 100.664 201.633 101.305C201.305 101.93 201.07 102.656 200.93 103.484C200.789 104.297 200.719 105.164 200.719 106.086Z" fill="black"/>
<path d="M1134 0H1348C1356.28 0 1363 6.71573 1363 15V148C1363 156.284 1356.28 163 1348 163H1134V0Z" fill="#99ABC7"/>
<path d="M1280.07 47.5H1216.93L1214.5 49.9286V113.071L1216.93 115.5H1280.07L1282.5 113.071V49.9286L1280.07 47.5ZM1277.64 110.643H1233.93V100.929H1245.1C1246.56 103.843 1249.96 105.786 1253.36 105.786C1258.7 105.786 1263.07 101.414 1263.07 96.0714C1263.07 90.7286 1258.7 86.3571 1253.36 86.3571C1248.01 86.3571 1243.64 90.7286 1243.64 96.0714H1229.07V110.643H1219.36V52.3571H1229.07V63.5286C1226.16 64.9857 1224.21 68.3857 1224.21 71.7857C1224.21 77.1286 1228.59 81.5 1233.93 81.5C1239.27 81.5 1243.64 77.1286 1243.64 71.7857H1253.36C1253.36 77.1286 1257.73 81.5 1263.07 81.5C1268.41 81.5 1272.79 77.1286 1272.79 71.7857C1272.79 66.4429 1268.41 62.0714 1263.07 62.0714C1259.67 62.0714 1256.27 64.0143 1254.81 66.9286H1242.19C1240.73 64.0143 1237.33 62.0714 1233.93 62.0714V52.3571H1277.64V110.643ZM1248.5 96.0714C1248.5 93.1571 1250.44 91.2143 1253.36 91.2143C1256.27 91.2143 1258.21 93.1571 1258.21 96.0714C1258.21 98.9857 1256.27 100.929 1253.36 100.929C1250.44 100.929 1248.5 98.9857 1248.5 96.0714ZM1233.93 66.9286C1236.84 66.9286 1238.79 68.8714 1238.79 71.7857C1238.79 74.7 1236.84 76.6429 1233.93 76.6429C1231.01 76.6429 1229.07 74.7 1229.07 71.7857C1229.07 68.8714 1231.01 66.9286 1233.93 66.9286ZM1263.07 66.9286C1265.99 66.9286 1267.93 68.8714 1267.93 71.7857C1267.93 74.7 1265.99 76.6429 1263.07 76.6429C1260.16 76.6429 1258.21 74.7 1258.21 71.7857C1258.21 68.8714 1260.16 66.9286 1263.07 66.9286Z" fill="white"/>
</svg>
