<svg width="1363" height="163" viewBox="0 0 1363 163" fill="none" xmlns="http://www.w3.org/2000/svg">
<path d="M0 15C0 6.71573 6.71573 0 15 0H37V163H15C6.71573 163 0 156.284 0 148V15Z" fill="#424242"/>
<rect width="1097" height="163" transform="translate(37)" fill="#F0F0F0"/>
<path d="M101.906 53.9219L94.3945 51.2383V48.0859L104.602 52.375V54.6367L101.906 53.9219ZM94.3945 56.1719L101.918 53.4297L104.602 52.7852V55.0352L94.3945 59.3242V56.1719ZM126.914 52.0703V52.8789C126.914 54.1758 126.738 55.3398 126.387 56.3711C126.035 57.4023 125.539 58.2812 124.898 59.0078C124.258 59.7266 123.492 60.2773 122.602 60.6602C121.719 61.043 120.738 61.2344 119.66 61.2344C118.59 61.2344 117.609 61.043 116.719 60.6602C115.836 60.2773 115.07 59.7266 114.422 59.0078C113.773 58.2812 113.27 57.4023 112.91 56.3711C112.559 55.3398 112.383 54.1758 112.383 52.8789V52.0703C112.383 50.7656 112.559 49.6016 112.91 48.5781C113.262 47.5469 113.758 46.668 114.398 45.9414C115.047 45.2148 115.812 44.6602 116.695 44.2773C117.586 43.8945 118.566 43.7031 119.637 43.7031C120.715 43.7031 121.695 43.8945 122.578 44.2773C123.469 44.6602 124.234 45.2148 124.875 45.9414C125.523 46.668 126.023 47.5469 126.375 48.5781C126.734 49.6016 126.914 50.7656 126.914 52.0703ZM123.363 52.8789V52.0469C123.363 51.1406 123.281 50.3438 123.117 49.6562C122.953 48.9688 122.711 48.3906 122.391 47.9219C122.07 47.4531 121.68 47.1016 121.219 46.8672C120.758 46.625 120.23 46.5039 119.637 46.5039C119.043 46.5039 118.516 46.625 118.055 46.8672C117.602 47.1016 117.215 47.4531 116.895 47.9219C116.582 48.3906 116.344 48.9688 116.18 49.6562C116.016 50.3438 115.934 51.1406 115.934 52.0469V52.8789C115.934 53.7773 116.016 54.5742 116.18 55.2695C116.344 55.957 116.586 56.5391 116.906 57.0156C117.227 57.4844 117.617 57.8398 118.078 58.082C118.539 58.3242 119.066 58.4453 119.66 58.4453C120.254 58.4453 120.781 58.3242 121.242 58.082C121.703 57.8398 122.09 57.4844 122.402 57.0156C122.715 56.5391 122.953 55.957 123.117 55.2695C123.281 54.5742 123.363 53.7773 123.363 52.8789ZM132.609 51.0859V61H129.234V48.3203H132.41L132.609 51.0859ZM136.43 48.2383L136.371 51.3672C136.207 51.3438 136.008 51.3242 135.773 51.3086C135.547 51.2852 135.34 51.2734 135.152 51.2734C134.676 51.2734 134.262 51.3359 133.91 51.4609C133.566 51.5781 133.277 51.7539 133.043 51.9883C132.816 52.2227 132.645 52.5078 132.527 52.8438C132.418 53.1797 132.355 53.5625 132.34 53.9922L131.66 53.7812C131.66 52.9609 131.742 52.207 131.906 51.5195C132.07 50.8242 132.309 50.2188 132.621 49.7031C132.941 49.1875 133.332 48.7891 133.793 48.5078C134.254 48.2266 134.781 48.0859 135.375 48.0859C135.562 48.0859 135.754 48.1016 135.949 48.1328C136.145 48.1562 136.305 48.1914 136.43 48.2383ZM143.027 58.5977C143.441 58.5977 143.809 58.5195 144.129 58.3633C144.449 58.1992 144.699 57.9727 144.879 57.6836C145.066 57.3867 145.164 57.0391 145.172 56.6406H148.348C148.34 57.5312 148.102 58.3242 147.633 59.0195C147.164 59.707 146.535 60.25 145.746 60.6484C144.957 61.0391 144.074 61.2344 143.098 61.2344C142.113 61.2344 141.254 61.0703 140.52 60.7422C139.793 60.4141 139.188 59.9609 138.703 59.3828C138.219 58.7969 137.855 58.1172 137.613 57.3438C137.371 56.5625 137.25 55.7266 137.25 54.8359V54.4961C137.25 53.5977 137.371 52.7617 137.613 51.9883C137.855 51.207 138.219 50.5273 138.703 49.9492C139.188 49.3633 139.793 48.9062 140.52 48.5781C141.246 48.25 142.098 48.0859 143.074 48.0859C144.113 48.0859 145.023 48.2852 145.805 48.6836C146.594 49.082 147.211 49.6523 147.656 50.3945C148.109 51.1289 148.34 52 148.348 53.0078H145.172C145.164 52.5859 145.074 52.2031 144.902 51.8594C144.738 51.5156 144.496 51.2422 144.176 51.0391C143.863 50.8281 143.477 50.7227 143.016 50.7227C142.523 50.7227 142.121 50.8281 141.809 51.0391C141.496 51.2422 141.254 51.5234 141.082 51.8828C140.91 52.2344 140.789 52.6367 140.719 53.0898C140.656 53.5352 140.625 54.0039 140.625 54.4961V54.8359C140.625 55.3281 140.656 55.8008 140.719 56.2539C140.781 56.707 140.898 57.1094 141.07 57.4609C141.25 57.8125 141.496 58.0898 141.809 58.293C142.121 58.4961 142.527 58.5977 143.027 58.5977ZM153.598 43V61H150.223V43H153.598ZM153.117 54.2148H152.191C152.199 53.332 152.316 52.5195 152.543 51.7773C152.77 51.0273 153.094 50.3789 153.516 49.832C153.938 49.2773 154.441 48.8477 155.027 48.543C155.621 48.2383 156.277 48.0859 156.996 48.0859C157.621 48.0859 158.188 48.1758 158.695 48.3555C159.211 48.5273 159.652 48.8086 160.02 49.1992C160.395 49.582 160.684 50.0859 160.887 50.7109C161.09 51.3359 161.191 52.0938 161.191 52.9844V61H157.793V52.9609C157.793 52.3984 157.711 51.957 157.547 51.6367C157.391 51.3086 157.16 51.0781 156.855 50.9453C156.559 50.8047 156.191 50.7344 155.754 50.7344C155.27 50.7344 154.855 50.8242 154.512 51.0039C154.176 51.1836 153.906 51.4336 153.703 51.7539C153.5 52.0664 153.352 52.4336 153.258 52.8555C153.164 53.2773 153.117 53.7305 153.117 54.2148ZM169.594 61.2344C168.609 61.2344 167.727 61.0781 166.945 60.7656C166.164 60.4453 165.5 60.0039 164.953 59.4414C164.414 58.8789 164 58.2266 163.711 57.4844C163.422 56.7344 163.277 55.9375 163.277 55.0938V54.625C163.277 53.6641 163.414 52.7852 163.688 51.9883C163.961 51.1914 164.352 50.5 164.859 49.9141C165.375 49.3281 166 48.8789 166.734 48.5664C167.469 48.2461 168.297 48.0859 169.219 48.0859C170.117 48.0859 170.914 48.2344 171.609 48.5312C172.305 48.8281 172.887 49.25 173.355 49.7969C173.832 50.3438 174.191 51 174.434 51.7656C174.676 52.5234 174.797 53.3672 174.797 54.2969V55.7031H164.719V53.4531H171.48V53.1953C171.48 52.7266 171.395 52.3086 171.223 51.9414C171.059 51.5664 170.809 51.2695 170.473 51.0508C170.137 50.832 169.707 50.7227 169.184 50.7227C168.738 50.7227 168.355 50.8203 168.035 51.0156C167.715 51.2109 167.453 51.4844 167.25 51.8359C167.055 52.1875 166.906 52.6016 166.805 53.0781C166.711 53.5469 166.664 54.0625 166.664 54.625V55.0938C166.664 55.6016 166.734 56.0703 166.875 56.5C167.023 56.9297 167.23 57.3008 167.496 57.6133C167.77 57.9258 168.098 58.168 168.48 58.3398C168.871 58.5117 169.312 58.5977 169.805 58.5977C170.414 58.5977 170.98 58.4805 171.504 58.2461C172.035 58.0039 172.492 57.6406 172.875 57.1562L174.516 58.9375C174.25 59.3203 173.887 59.6875 173.426 60.0391C172.973 60.3906 172.426 60.6797 171.785 60.9062C171.145 61.125 170.414 61.2344 169.594 61.2344ZM183.574 57.4961C183.574 57.2539 183.504 57.0352 183.363 56.8398C183.223 56.6445 182.961 56.4648 182.578 56.3008C182.203 56.1289 181.66 55.9727 180.949 55.832C180.309 55.6914 179.711 55.5156 179.156 55.3047C178.609 55.0859 178.133 54.8242 177.727 54.5195C177.328 54.2148 177.016 53.8555 176.789 53.4414C176.562 53.0195 176.449 52.5391 176.449 52C176.449 51.4688 176.562 50.9688 176.789 50.5C177.023 50.0312 177.355 49.6172 177.785 49.2578C178.223 48.8906 178.754 48.6055 179.379 48.4023C180.012 48.1914 180.723 48.0859 181.512 48.0859C182.613 48.0859 183.559 48.2617 184.348 48.6133C185.145 48.9648 185.754 49.4492 186.176 50.0664C186.605 50.6758 186.82 51.3711 186.82 52.1523H183.445C183.445 51.8242 183.375 51.5312 183.234 51.2734C183.102 51.0078 182.891 50.8008 182.602 50.6523C182.32 50.4961 181.953 50.418 181.5 50.418C181.125 50.418 180.801 50.4844 180.527 50.6172C180.254 50.7422 180.043 50.9141 179.895 51.1328C179.754 51.3438 179.684 51.5781 179.684 51.8359C179.684 52.0312 179.723 52.207 179.801 52.3633C179.887 52.5117 180.023 52.6484 180.211 52.7734C180.398 52.8984 180.641 53.0156 180.938 53.125C181.242 53.2266 181.617 53.3203 182.062 53.4062C182.977 53.5938 183.793 53.8398 184.512 54.1445C185.23 54.4414 185.801 54.8477 186.223 55.3633C186.645 55.8711 186.855 56.5391 186.855 57.3672C186.855 57.9297 186.73 58.4453 186.48 58.9141C186.23 59.3828 185.871 59.793 185.402 60.1445C184.934 60.4883 184.371 60.7578 183.715 60.9531C183.066 61.1406 182.336 61.2344 181.523 61.2344C180.344 61.2344 179.344 61.0234 178.523 60.6016C177.711 60.1797 177.094 59.6445 176.672 58.9961C176.258 58.3398 176.051 57.668 176.051 56.9805H179.25C179.266 57.4414 179.383 57.8125 179.602 58.0938C179.828 58.375 180.113 58.5781 180.457 58.7031C180.809 58.8281 181.188 58.8906 181.594 58.8906C182.031 58.8906 182.395 58.832 182.684 58.7148C182.973 58.5898 183.191 58.4258 183.34 58.2227C183.496 58.0117 183.574 57.7695 183.574 57.4961ZM195.258 48.3203V50.7109H187.875V48.3203H195.258ZM189.703 45.1914H193.078V57.1797C193.078 57.5469 193.125 57.8281 193.219 58.0234C193.32 58.2188 193.469 58.3555 193.664 58.4336C193.859 58.5039 194.105 58.5391 194.402 58.5391C194.613 58.5391 194.801 58.5312 194.965 58.5156C195.137 58.4922 195.281 58.4688 195.398 58.4453L195.41 60.9297C195.121 61.0234 194.809 61.0977 194.473 61.1523C194.137 61.207 193.766 61.2344 193.359 61.2344C192.617 61.2344 191.969 61.1133 191.414 60.8711C190.867 60.6211 190.445 60.2227 190.148 59.6758C189.852 59.1289 189.703 58.4102 189.703 57.5195V45.1914ZM200.555 51.0859V61H197.18V48.3203H200.355L200.555 51.0859ZM204.375 48.2383L204.316 51.3672C204.152 51.3438 203.953 51.3242 203.719 51.3086C203.492 51.2852 203.285 51.2734 203.098 51.2734C202.621 51.2734 202.207 51.3359 201.855 51.4609C201.512 51.5781 201.223 51.7539 200.988 51.9883C200.762 52.2227 200.59 52.5078 200.473 52.8438C200.363 53.1797 200.301 53.5625 200.285 53.9922L199.605 53.7812C199.605 52.9609 199.688 52.207 199.852 51.5195C200.016 50.8242 200.254 50.2188 200.566 49.7031C200.887 49.1875 201.277 48.7891 201.738 48.5078C202.199 48.2266 202.727 48.0859 203.32 48.0859C203.508 48.0859 203.699 48.1016 203.895 48.1328C204.09 48.1562 204.25 48.1914 204.375 48.2383ZM209.531 48.3203V61H206.145V48.3203H209.531ZM205.934 45.0156C205.934 44.5234 206.105 44.1172 206.449 43.7969C206.793 43.4766 207.254 43.3164 207.832 43.3164C208.402 43.3164 208.859 43.4766 209.203 43.7969C209.555 44.1172 209.73 44.5234 209.73 45.0156C209.73 45.5078 209.555 45.9141 209.203 46.2344C208.859 46.5547 208.402 46.7148 207.832 46.7148C207.254 46.7148 206.793 46.5547 206.449 46.2344C206.105 45.9141 205.934 45.5078 205.934 45.0156ZM215.695 42.9883V61H212.32V42.9883H215.695ZM223.688 48.3203L218.18 54.6016L215.227 57.5898L213.996 55.1523L216.34 52.1758L219.633 48.3203H223.688ZM220.184 61L216.434 55.1406L218.766 53.1016L224.074 61H220.184Z" fill="#888888"/>
<path d="M106.688 119H99.1172L99.1641 112.672H106.688C108.25 112.672 109.57 112.297 110.648 111.547C111.742 110.797 112.57 109.68 113.133 108.195C113.711 106.695 114 104.852 114 102.664V101.188C114 99.5469 113.836 98.1094 113.508 96.875C113.195 95.625 112.727 94.5859 112.102 93.7578C111.477 92.9141 110.695 92.2812 109.758 91.8594C108.836 91.4375 107.773 91.2266 106.57 91.2266H98.9766V84.875H106.57C108.883 84.875 111 85.2734 112.922 86.0703C114.859 86.8516 116.531 87.9766 117.938 89.4453C119.359 90.8984 120.453 92.625 121.219 94.625C122 96.6094 122.391 98.8125 122.391 101.234V102.664C122.391 105.07 122 107.273 121.219 109.273C120.453 111.273 119.367 113 117.961 114.453C116.555 115.906 114.891 117.031 112.969 117.828C111.062 118.609 108.969 119 106.688 119ZM103.828 84.875V119H95.6016V84.875H103.828ZM138.586 119.469C136.523 119.469 134.68 119.148 133.055 118.508C131.43 117.852 130.055 116.953 128.93 115.812C127.82 114.672 126.969 113.359 126.375 111.875C125.797 110.391 125.508 108.82 125.508 107.164V106.273C125.508 104.414 125.766 102.695 126.281 101.117C126.797 99.5234 127.562 98.1328 128.578 96.9453C129.594 95.7578 130.867 94.8359 132.398 94.1797C133.93 93.5078 135.711 93.1719 137.742 93.1719C139.539 93.1719 141.148 93.4609 142.57 94.0391C143.992 94.6172 145.195 95.4453 146.18 96.5234C147.18 97.6016 147.938 98.9062 148.453 100.438C148.984 101.969 149.25 103.688 149.25 105.594V108.805H128.531V103.859H141.539V103.25C141.555 102.406 141.406 101.688 141.094 101.094C140.797 100.5 140.359 100.047 139.781 99.7344C139.203 99.4219 138.5 99.2656 137.672 99.2656C136.812 99.2656 136.102 99.4531 135.539 99.8281C134.992 100.203 134.562 100.719 134.25 101.375C133.953 102.016 133.742 102.758 133.617 103.602C133.492 104.445 133.43 105.336 133.43 106.273V107.164C133.43 108.102 133.555 108.953 133.805 109.719C134.07 110.484 134.445 111.141 134.93 111.688C135.43 112.219 136.023 112.633 136.711 112.93C137.414 113.227 138.211 113.375 139.102 113.375C140.18 113.375 141.242 113.172 142.289 112.766C143.336 112.359 144.234 111.688 144.984 110.75L148.57 115.016C148.055 115.75 147.32 116.461 146.367 117.148C145.43 117.836 144.305 118.398 142.992 118.836C141.68 119.258 140.211 119.469 138.586 119.469ZM160.43 98.5156V128.75H152.531V93.6406H159.891L160.43 98.5156ZM175.992 106.016V106.508C175.992 108.352 175.781 110.062 175.359 111.641C174.938 113.219 174.312 114.594 173.484 115.766C172.656 116.938 171.625 117.852 170.391 118.508C169.172 119.148 167.758 119.469 166.148 119.469C164.633 119.469 163.328 119.133 162.234 118.461C161.141 117.789 160.227 116.859 159.492 115.672C158.758 114.484 158.164 113.125 157.711 111.594C157.258 110.062 156.898 108.445 156.633 106.742V106.109C156.898 104.281 157.258 102.586 157.711 101.023C158.164 99.4453 158.758 98.0703 159.492 96.8984C160.227 95.7266 161.133 94.8125 162.211 94.1562C163.305 93.5 164.609 93.1719 166.125 93.1719C167.734 93.1719 169.148 93.4766 170.367 94.0859C171.602 94.6953 172.633 95.5703 173.461 96.7109C174.305 97.8359 174.938 99.1875 175.359 100.766C175.781 102.344 175.992 104.094 175.992 106.016ZM168.094 106.508V106.016C168.094 105.031 168.023 104.133 167.883 103.32C167.742 102.492 167.516 101.773 167.203 101.164C166.906 100.555 166.508 100.086 166.008 99.7578C165.508 99.4297 164.891 99.2656 164.156 99.2656C163.312 99.2656 162.602 99.3984 162.023 99.6641C161.461 99.9141 161.008 100.305 160.664 100.836C160.336 101.352 160.102 102 159.961 102.781C159.836 103.547 159.781 104.445 159.797 105.477V107.398C159.766 108.586 159.883 109.633 160.148 110.539C160.414 111.43 160.875 112.125 161.531 112.625C162.188 113.125 163.078 113.375 164.203 113.375C164.953 113.375 165.578 113.203 166.078 112.859C166.578 112.5 166.977 112.008 167.273 111.383C167.57 110.742 167.781 110.008 167.906 109.18C168.031 108.352 168.094 107.461 168.094 106.508ZM187.852 83V119H179.93V83H187.852ZM191.742 106.578V106.086C191.742 104.227 192.008 102.516 192.539 100.953C193.07 99.375 193.852 98.0078 194.883 96.8516C195.914 95.6953 197.188 94.7969 198.703 94.1562C200.219 93.5 201.969 93.1719 203.953 93.1719C205.953 93.1719 207.711 93.5 209.227 94.1562C210.758 94.7969 212.039 95.6953 213.07 96.8516C214.102 98.0078 214.883 99.375 215.414 100.953C215.945 102.516 216.211 104.227 216.211 106.086V106.578C216.211 108.422 215.945 110.133 215.414 111.711C214.883 113.273 214.102 114.641 213.07 115.812C212.039 116.969 210.766 117.867 209.25 118.508C207.734 119.148 205.984 119.469 204 119.469C202.016 119.469 200.258 119.148 198.727 118.508C197.195 117.867 195.914 116.969 194.883 115.812C193.852 114.641 193.07 113.273 192.539 111.711C192.008 110.133 191.742 108.422 191.742 106.578ZM199.641 106.086V106.578C199.641 107.531 199.711 108.422 199.852 109.25C199.992 110.078 200.227 110.805 200.555 111.43C200.883 112.039 201.328 112.516 201.891 112.859C202.453 113.203 203.156 113.375 204 113.375C204.828 113.375 205.516 113.203 206.062 112.859C206.625 112.516 207.07 112.039 207.398 111.43C207.727 110.805 207.961 110.078 208.102 109.25C208.242 108.422 208.312 107.531 208.312 106.578V106.086C208.312 105.164 208.242 104.297 208.102 103.484C207.961 102.656 207.727 101.93 207.398 101.305C207.07 100.664 206.625 100.164 206.062 99.8047C205.5 99.4453 204.797 99.2656 203.953 99.2656C203.125 99.2656 202.43 99.4453 201.867 99.8047C201.32 100.164 200.883 100.664 200.555 101.305C200.227 101.93 199.992 102.656 199.852 103.484C199.711 104.297 199.641 105.164 199.641 106.086ZM227.133 116.023L233.695 93.6406H242.18L231.984 122.773C231.766 123.414 231.477 124.102 231.117 124.836C230.758 125.586 230.266 126.297 229.641 126.969C229.016 127.641 228.211 128.188 227.227 128.609C226.258 129.031 225.055 129.242 223.617 129.242C222.852 129.242 222.289 129.203 221.93 129.125C221.586 129.062 221.055 128.945 220.336 128.773V123.125C220.539 123.125 220.711 123.125 220.852 123.125C221.008 123.125 221.18 123.125 221.367 123.125C222.211 123.125 222.883 123.039 223.383 122.867C223.898 122.695 224.289 122.445 224.555 122.117C224.836 121.789 225.055 121.391 225.211 120.922L227.133 116.023ZM225.469 93.6406L230.461 111.383L231.328 119.75H226.031L217.008 93.6406H225.469ZM252.211 99.0078V119H244.312V93.6406H251.719L252.211 99.0078ZM251.25 105.453L249.445 105.5C249.445 103.719 249.656 102.078 250.078 100.578C250.5 99.0781 251.125 97.7734 251.953 96.6641C252.781 95.5547 253.797 94.6953 255 94.0859C256.219 93.4766 257.625 93.1719 259.219 93.1719C260.328 93.1719 261.336 93.3438 262.242 93.6875C263.148 94.0156 263.93 94.5391 264.586 95.2578C265.242 95.9609 265.742 96.8828 266.086 98.0234C266.445 99.1484 266.625 100.5 266.625 102.078V119H258.727V103.086C258.727 102.008 258.602 101.195 258.352 100.648C258.117 100.102 257.773 99.7344 257.32 99.5469C256.867 99.3594 256.312 99.2656 255.656 99.2656C254.969 99.2656 254.352 99.4219 253.805 99.7344C253.258 100.047 252.789 100.484 252.398 101.047C252.023 101.594 251.734 102.242 251.531 102.992C251.344 103.742 251.25 104.562 251.25 105.453ZM265.734 105.453L263.531 105.5C263.531 103.719 263.727 102.078 264.117 100.578C264.523 99.0781 265.125 97.7734 265.922 96.6641C266.734 95.5547 267.742 94.6953 268.945 94.0859C270.148 93.4766 271.547 93.1719 273.141 93.1719C274.297 93.1719 275.359 93.3438 276.328 93.6875C277.297 94.0312 278.133 94.5859 278.836 95.3516C279.539 96.1172 280.086 97.1328 280.477 98.3984C280.867 99.6484 281.062 101.195 281.062 103.039V119H273.141V103.039C273.141 101.992 273.016 101.203 272.766 100.672C272.531 100.125 272.188 99.7578 271.734 99.5703C271.281 99.3672 270.742 99.2656 270.117 99.2656C269.367 99.2656 268.719 99.4219 268.172 99.7344C267.625 100.047 267.164 100.484 266.789 101.047C266.43 101.594 266.164 102.242 265.992 102.992C265.82 103.742 265.734 104.562 265.734 105.453ZM297.867 119.469C295.805 119.469 293.961 119.148 292.336 118.508C290.711 117.852 289.336 116.953 288.211 115.812C287.102 114.672 286.25 113.359 285.656 111.875C285.078 110.391 284.789 108.82 284.789 107.164V106.273C284.789 104.414 285.047 102.695 285.562 101.117C286.078 99.5234 286.844 98.1328 287.859 96.9453C288.875 95.7578 290.148 94.8359 291.68 94.1797C293.211 93.5078 294.992 93.1719 297.023 93.1719C298.82 93.1719 300.43 93.4609 301.852 94.0391C303.273 94.6172 304.477 95.4453 305.461 96.5234C306.461 97.6016 307.219 98.9062 307.734 100.438C308.266 101.969 308.531 103.688 308.531 105.594V108.805H287.812V103.859H300.82V103.25C300.836 102.406 300.688 101.688 300.375 101.094C300.078 100.5 299.641 100.047 299.062 99.7344C298.484 99.4219 297.781 99.2656 296.953 99.2656C296.094 99.2656 295.383 99.4531 294.82 99.8281C294.273 100.203 293.844 100.719 293.531 101.375C293.234 102.016 293.023 102.758 292.898 103.602C292.773 104.445 292.711 105.336 292.711 106.273V107.164C292.711 108.102 292.836 108.953 293.086 109.719C293.352 110.484 293.727 111.141 294.211 111.688C294.711 112.219 295.305 112.633 295.992 112.93C296.695 113.227 297.492 113.375 298.383 113.375C299.461 113.375 300.523 113.172 301.57 112.766C302.617 112.359 303.516 111.688 304.266 110.75L307.852 115.016C307.336 115.75 306.602 116.461 305.648 117.148C304.711 117.836 303.586 118.398 302.273 118.836C300.961 119.258 299.492 119.469 297.867 119.469ZM319.5 99.0547V119H311.602V93.6406H319.008L319.5 99.0547ZM318.562 105.453L316.711 105.5C316.711 103.562 316.945 101.836 317.414 100.32C317.883 98.7891 318.547 97.4922 319.406 96.4297C320.266 95.3672 321.289 94.5625 322.477 94.0156C323.68 93.4531 325.016 93.1719 326.484 93.1719C327.656 93.1719 328.727 93.3438 329.695 93.6875C330.68 94.0312 331.523 94.5859 332.227 95.3516C332.945 96.1172 333.492 97.1328 333.867 98.3984C334.258 99.6484 334.453 101.195 334.453 103.039V119H326.508V103.016C326.508 102 326.367 101.227 326.086 100.695C325.805 100.148 325.398 99.7734 324.867 99.5703C324.336 99.3672 323.688 99.2656 322.922 99.2656C322.109 99.2656 321.422 99.4219 320.859 99.7344C320.297 100.047 319.844 100.484 319.5 101.047C319.172 101.594 318.93 102.242 318.773 102.992C318.633 103.742 318.562 104.562 318.562 105.453ZM352.195 93.6406V99.125H336.914V93.6406H352.195ZM340.125 87.3359H348.023V110.727C348.023 111.398 348.102 111.922 348.258 112.297C348.414 112.656 348.68 112.914 349.055 113.07C349.445 113.211 349.961 113.281 350.602 113.281C351.055 113.281 351.43 113.273 351.727 113.258C352.023 113.227 352.305 113.188 352.57 113.141V118.789C351.898 119.008 351.195 119.172 350.461 119.281C349.727 119.406 348.945 119.469 348.117 119.469C346.43 119.469 344.984 119.203 343.781 118.672C342.594 118.141 341.688 117.305 341.062 116.164C340.438 115.023 340.125 113.539 340.125 111.711V87.3359Z" fill="black"/>
<path d="M1134 0H1348C1356.28 0 1363 6.71573 1363 15V148C1363 156.284 1356.28 163 1348 163H1134V0Z" fill="#99ABC7"/>
<path d="M1212.5 117.5L1212.5 45.5L1284.5 45.5L1284.5 117.5L1212.5 117.5Z" fill="white" fill-opacity="0.01"/>
<path d="M1221.5 81.5125L1221.5 108.5L1275.5 108.5L1275.5 81.5" stroke="white" stroke-width="7.24" stroke-linecap="round" stroke-linejoin="round"/>
<path d="M1262 68L1248.5 54.5L1235 68" stroke="white" stroke-width="7.24" stroke-linecap="round" stroke-linejoin="round"/>
<path d="M1248.49 93.4999L1248.49 54.5" stroke="white" stroke-width="7.24" stroke-linecap="round" stroke-linejoin="round"/>
</svg>
